<svg width="60" height="60" viewBox="0 0 60 60" fill="none" xmlns="http://www.w3.org/2000/svg">
<path d="M0 0V60H60V0H0ZM5.45455 5.45455H54.5455V54.5455H5.45455V5.45455ZM16.3636 13.6364V28.663V46.337C32.5364 46.337 35.7724 46.5552 38.7997 45.6552C40.5724 45.1097 45.4261 43.3647 45.4261 37.2283C45.4261 34.5011 44.6086 29.8883 39.2631 28.7429V28.663H38.2564C40.9837 27.4357 42.6989 25.1207 42.6989 21.7117C42.6989 20.8389 42.9439 13.6364 33.3984 13.6364H16.3636ZM21.8182 19.0909H32.7273C36.8427 19.0909 37.2443 21.4179 37.2443 23.1552C37.2443 27.3934 32.8091 27.2727 32.7273 27.2727H21.8182V19.0909ZM21.8182 32.7273H34.7994C39.8748 32.7273 39.9716 35.9358 39.9716 36.7649C39.9716 41.0195 35.5762 40.9091 35.0444 40.9091H21.8182V32.7273Z" fill="#2849F7"/>
</svg>
