<svg width="50" height="50" viewBox="0 0 50 50" fill="none" xmlns="http://www.w3.org/2000/svg">
<path d="M0 0V50H50V0H0ZM4.54545 4.54545H45.4545V45.4545H4.54545V4.54545ZM13.6364 11.3636V23.8858V38.6142C27.1136 38.6142 29.8104 38.796 32.3331 38.046C33.8104 37.5914 37.8551 36.1373 37.8551 31.0236C37.8551 28.7509 37.1738 24.907 32.7193 23.9524V23.8858H31.8803C34.1531 22.8631 35.5824 20.9339 35.5824 18.093C35.5824 17.3658 35.7866 11.3636 27.832 11.3636H13.6364ZM18.1818 15.9091H27.2727C30.7023 15.9091 31.0369 17.8483 31.0369 19.296C31.0369 22.8278 27.3409 22.7273 27.2727 22.7273H18.1818V15.9091ZM18.1818 27.2727H28.9995C33.229 27.2727 33.3097 29.9465 33.3097 30.6374C33.3097 34.1829 29.6468 34.0909 29.2037 34.0909H18.1818V27.2727Z" fill="url(#paint0_linear)"/>
<defs>
<linearGradient id="paint0_linear" x1="25" y1="0" x2="25" y2="50" gradientUnits="userSpaceOnUse">
<stop stop-color="#835AFD"/>
<stop offset="1" stop-color="#DA4FFE"/>
</linearGradient>
</defs>
</svg>
