<svg width="60" height="65" viewBox="0 0 60 65" fill="none" xmlns="http://www.w3.org/2000/svg">
<g clip-path="url(#clip0_537:41)">
<path fill-rule="evenodd" clip-rule="evenodd" d="M54.7059 58.8L30 65.8588L5.29412 58.8L0 -1.2H60C58.2353 18.7977 56.4706 38.8023 54.7059 58.8ZM56.1466 2.32942H3.8534L8.59605 56.0702L30 62.1916L51.404 56.0702L56.1466 2.32942ZM15.5308 37.6235H22.5896L22.7619 42.0353L30 44.5031L37.2381 42.0353L37.7619 34.0941H22.2381L21.8796 27.0353H38.1204L38.6443 19.9765H14.2969L13.7661 12.9177H46.0616L45.1792 27.0353L43.9384 47.3294L30 51.9204L16.0616 47.3294L15.5308 37.6235Z" fill="#2849F7"/>
</g>
<defs>
<clipPath id="clip0_537:41">
<rect width="60" height="64.8" fill="white"/>
</clipPath>
</defs>
</svg>
