<svg width="25" height="25" viewBox="0 0 25 25" fill="none" xmlns="http://www.w3.org/2000/svg">
<path d="M21.875 3.125H3.125C1.39922 3.125 0 4.52422 0 6.25V18.75C0 20.4758 1.39922 21.875 3.125 21.875H21.875C23.6008 21.875 25 20.4758 25 18.75V6.25C25 4.52422 23.6008 3.125 21.875 3.125ZM16.7313 11.4639L23.3459 5.79526C23.3917 5.94175 23.4375 6.08823 23.4375 6.25V18.75C23.4375 18.8583 23.3963 18.9545 23.375 19.0567L16.7313 11.4639ZM21.875 4.6875C21.9788 4.6875 22.0703 4.7272 22.168 4.74702L12.5 13.0341L2.83203 4.74702C2.92969 4.7272 3.02124 4.6875 3.125 4.6875H21.875ZM1.62432 19.0552C1.60293 18.9529 1.5625 18.8583 1.5625 18.75V6.25C1.5625 6.08823 1.60903 5.94175 1.65483 5.79526L8.26724 11.4624L1.62432 19.0552ZM3.125 20.3125C2.96709 20.3125 2.82363 20.2667 2.67944 20.2225L9.45435 12.4801L11.9919 14.6545C12.1376 14.7812 12.3192 14.8438 12.5 14.8438C12.6808 14.8438 12.8624 14.7812 13.0081 14.6545L15.5457 12.4802L22.3206 20.2225C22.1771 20.2667 22.0337 20.3125 21.875 20.3125H3.125Z" fill="#F4F4F4"/>
</svg>
