<svg width="100" height="100" viewBox="0 0 100 100" fill="none" xmlns="http://www.w3.org/2000/svg">
<circle cx="50" cy="50" r="50" fill="#2849F7"/>
<path d="M72.5 27.5H27.5C23.3581 27.5 20 30.8581 20 35V65C20 69.1419 23.3581 72.5 27.5 72.5H72.5C76.6419 72.5 80 69.1419 80 65V35C80 30.8581 76.6419 27.5 72.5 27.5ZM60.155 47.5134L76.0303 33.9086C76.1402 34.2602 76.25 34.6118 76.25 35V65C76.25 65.26 76.1511 65.4908 76.0999 65.7361L60.155 47.5134ZM72.5 31.25C72.749 31.25 72.9688 31.3453 73.2031 31.3929L50 51.2818L26.7969 31.3929C27.0312 31.3453 27.251 31.25 27.5 31.25H72.5ZM23.8984 65.7324C23.847 65.487 23.75 65.26 23.75 65V35C23.75 34.6118 23.8617 34.2602 23.9716 33.9086L39.8414 47.5098L23.8984 65.7324ZM27.5 68.75C27.121 68.75 26.7767 68.6401 26.4307 68.5339L42.6904 49.9523L48.7805 55.1708C49.1302 55.4749 49.5661 55.625 50 55.625C50.4339 55.625 50.8698 55.4749 51.2195 55.1709L57.3096 49.9524L73.5693 68.534C73.2252 68.6401 72.8809 68.75 72.5 68.75H27.5Z" fill="#F4F4F4"/>
</svg>
