<svg width="60" height="60" viewBox="0 0 60 60" fill="none" xmlns="http://www.w3.org/2000/svg">
<g clip-path="url(#clip0_537:33)">
<path d="M30 2.6087C30.7388 2.6087 31.4317 2.89402 31.9514 3.41882L56.5812 28.0486C57.6613 29.1236 57.6613 30.8764 56.5812 31.9514L31.9514 56.5812C31.4317 57.106 30.7388 57.3913 30 57.3913C29.2612 57.3913 28.5683 57.106 28.0486 56.5812L3.41882 31.9514C2.33866 30.8764 2.33866 29.1236 3.41882 28.0486L19.4888 11.9786L22.4541 14.944C21.7408 17.5934 22.4592 20.4823 24.4667 22.4898C24.9457 22.9688 25.4908 23.3815 26.087 23.7228V36.2823C23.7126 37.6529 22.1739 40.2055 22.1739 43.0435C22.1739 47.359 25.6844 50.8696 30 50.8696C34.3156 50.8696 37.8261 47.359 37.8261 43.0435C37.8261 40.2055 36.2874 37.6529 33.913 36.2823V26.4029L35.4976 27.9874C34.7843 30.6369 35.5027 33.5258 37.5102 35.5333C38.9878 37.0109 40.9545 37.8261 43.0435 37.8261C45.1325 37.8261 47.0992 37.0109 48.5768 35.5333C51.6287 32.4813 51.6287 27.5187 48.5768 24.4667C47.1043 22.9942 45.1529 22.1841 43.069 22.1841C42.3811 22.1841 41.6933 22.2758 41.0309 22.4541L37.5459 18.9691C38.2592 16.3196 37.5408 13.4307 35.5333 11.4232C34.0608 9.95075 32.1094 9.14063 30.0255 9.14063C29.3376 9.14063 28.6498 9.23234 27.9874 9.41067L25.0221 6.44531L28.0486 3.41882C28.5683 2.89402 29.2612 2.6087 30 2.6087ZM30 0C28.6243 0 27.2486 0.524797 26.2041 1.57439L21.3332 6.44531L27.3607 12.4728C28.181 11.9939 29.1033 11.7493 30.0255 11.7493C31.3502 11.7493 32.6749 12.2537 33.6889 13.2677C35.4059 14.9847 35.6556 17.5934 34.4786 19.5907L40.4042 25.5163C41.2245 25.0374 42.1467 24.7928 43.069 24.7928C44.3937 24.7928 45.7184 25.2972 46.7323 26.3111C48.7704 28.3492 48.7704 31.6508 46.7323 33.6889C45.7133 34.7079 44.3784 35.2174 43.0435 35.2174C41.7086 35.2174 40.3736 34.7079 39.3546 33.6889C37.6376 31.9718 37.3879 29.3631 38.5649 27.3607L32.6393 21.4351C32.2164 21.6848 31.768 21.8682 31.3043 21.9854V38.0095C33.5513 38.5904 35.2174 40.6131 35.2174 43.0435C35.2174 45.9273 32.8838 48.2609 30 48.2609C27.1213 48.2609 24.7826 45.9273 24.7826 43.0435C24.7826 40.6131 26.4487 38.5904 28.6957 38.0095V21.9854C27.8244 21.7612 26.9939 21.3281 26.3111 20.6454C24.5941 18.9283 24.3444 16.3196 25.5214 14.3224L19.4888 8.28974L1.57439 26.2041C-0.524796 28.2982 -0.524796 31.7018 1.57439 33.7959L26.2041 58.4256C27.2486 59.4752 28.6243 60 30 60C31.3757 60 32.7514 59.4752 33.7959 58.4256L58.4256 33.7959C60.5248 31.7018 60.5248 28.2982 58.4256 26.2041L33.7959 1.57439C32.7514 0.524797 31.3757 0 30 0Z" fill="#2849F7"/>
</g>
<defs>
<clipPath id="clip0_537:33">
<rect width="60" height="60" fill="white"/>
</clipPath>
</defs>
</svg>
