<svg width="50" height="50" viewBox="0 0 50 50" fill="none" xmlns="http://www.w3.org/2000/svg">
<g clip-path="url(#clip0)">
<path d="M25 2.17391C25.6157 2.17391 26.1931 2.41168 26.6262 2.84902L47.151 23.3738C48.0511 24.2697 48.0511 25.7303 47.151 26.6262L26.6262 47.151C26.1931 47.5883 25.6157 47.8261 25 47.8261C24.3843 47.8261 23.8069 47.5883 23.3738 47.151L2.84902 26.6262C1.94888 25.7303 1.94888 24.2697 2.84902 23.3738L16.2407 9.98217L18.7118 12.4533C18.1174 14.6612 18.716 17.0686 20.3889 18.7415C20.788 19.1406 21.2424 19.4845 21.7391 19.769V30.2352C19.7605 31.3774 18.4783 33.5046 18.4783 35.8696C18.4783 39.4659 21.4037 42.3913 25 42.3913C28.5963 42.3913 31.5217 39.4659 31.5217 35.8696C31.5217 33.5046 30.2395 31.3774 28.2609 30.2352V22.0024L29.5814 23.3229C28.9869 25.5307 29.5856 27.9382 31.2585 29.6111C32.4898 30.8424 34.1287 31.5217 35.8696 31.5217C37.6104 31.5217 39.2493 30.8424 40.4806 29.6111C43.0239 27.0678 43.0239 22.9322 40.4806 20.3889C39.2536 19.1619 37.6274 18.4868 35.8908 18.4868C35.3176 18.4868 34.7444 18.5632 34.1924 18.7118L31.2882 15.8076C31.8826 13.5997 31.284 11.1923 29.6111 9.51936C28.384 8.29229 26.7578 7.61719 25.0212 7.61719C24.448 7.61719 23.8748 7.69361 23.3229 7.84222L20.8517 5.37109L23.3738 2.84902C23.8069 2.41168 24.3843 2.17391 25 2.17391ZM25 0C23.8536 0 22.7072 0.43733 21.8368 1.31199L17.7777 5.37109L22.8006 10.394C23.4842 9.99491 24.2527 9.7911 25.0212 9.7911C26.1252 9.7911 27.2291 10.2114 28.074 11.0564C29.5049 12.4873 29.713 14.6612 28.7322 16.3256L33.6702 21.2636C34.3538 20.8645 35.1223 20.6607 35.8908 20.6607C36.9947 20.6607 38.0987 21.081 38.9436 21.926C40.642 23.6243 40.642 26.3757 38.9436 28.074C38.0944 28.9232 36.982 29.3478 35.8696 29.3478C34.7571 29.3478 33.6447 28.9232 32.7955 28.074C31.3646 26.6432 31.1566 24.4693 32.1374 22.8006L27.1994 17.8626C26.847 18.0707 26.4733 18.2235 26.087 18.3212V31.6746C27.9594 32.1586 29.3478 33.8443 29.3478 35.8696C29.3478 38.2728 27.4032 40.2174 25 40.2174C22.6011 40.2174 20.6522 38.2728 20.6522 35.8696C20.6522 33.8443 22.0406 32.1586 23.913 31.6746V18.3212C23.187 18.1343 22.4949 17.7734 21.926 17.2045C20.4951 15.7736 20.287 13.5997 21.2678 11.9353L16.2407 6.90812L1.31199 21.8368C-0.43733 23.5819 -0.43733 26.4181 1.31199 28.1632L21.8368 48.688C22.7072 49.5627 23.8536 50 25 50C26.1464 50 27.2928 49.5627 28.1632 48.688L48.688 28.1632C50.4373 26.4181 50.4373 23.5819 48.688 21.8368L28.1632 1.31199C27.2928 0.43733 26.1464 0 25 0Z" fill="url(#paint0_linear)"/>
</g>
<defs>
<linearGradient id="paint0_linear" x1="25" y1="0" x2="25" y2="50" gradientUnits="userSpaceOnUse">
<stop stop-color="#835AFD"/>
<stop offset="1" stop-color="#DA4FFE"/>
</linearGradient>
<clipPath id="clip0">
<rect width="50" height="50" fill="white"/>
</clipPath>
</defs>
</svg>
