<svg width="50" height="50" viewBox="0 0 50 50" fill="none" xmlns="http://www.w3.org/2000/svg">
<path d="M25.0003 4.16666C13.4941 4.16666 4.16699 13.4937 4.16699 25C4.16699 34.2573 10.2097 42.0948 18.5628 44.8083H31.4378C39.791 42.0948 45.8337 34.2573 45.8337 25C45.8337 13.4937 36.5066 4.16666 25.0003 4.16666Z" fill="#2849F7"/>
<path opacity="0.05" d="M31.2601 43.7458L31.2497 37.7063C31.2497 36.7281 31.0205 35.7729 30.581 34.9073C36.457 33.7271 39.3164 30.2531 39.3164 24.3062C39.3164 21.9573 38.6237 19.8833 37.2581 18.1396C37.3622 17.8094 37.4393 17.4677 37.4872 17.1177C37.683 15.6917 37.4633 14.7594 37.2862 14.0094L37.2581 13.8885C37.0643 13.0594 36.832 12.4677 36.8226 12.4427L36.707 12.149L36.5914 11.8552L36.2768 11.8219L35.9612 11.7885C35.9612 11.7885 35.7539 11.7667 35.4393 11.7667C35.0028 11.7667 34.356 11.8104 33.7445 12.0177L33.5403 12.0865C32.7695 12.3458 32.0414 12.5917 31.0226 13.2C30.7247 13.3781 30.3987 13.5812 30.0497 13.8083C28.4726 13.4177 26.7758 13.2187 24.9997 13.2187C23.206 13.2187 21.4945 13.4187 19.907 13.8135C19.5539 13.5844 19.2258 13.3792 18.9258 13.2C17.907 12.5917 17.1789 12.3469 16.408 12.0865L16.2039 12.0177C15.5945 11.8104 14.9466 11.7667 14.5101 11.7667C14.1955 11.7667 13.9883 11.7885 13.9883 11.7885L13.6737 11.8219L13.3612 11.8542L13.2445 12.1469L13.1268 12.4417C13.1164 12.4687 12.8841 13.0604 12.6903 13.8906L12.6622 14.0104C12.4851 14.7594 12.2653 15.6927 12.4612 17.1177C12.5112 17.4781 12.5914 17.8312 12.7008 18.1708C11.3622 19.9062 10.6841 21.9687 10.6841 24.3062C10.6841 30.2385 13.5466 33.7104 19.431 34.9C19.2289 35.3042 19.0716 35.7312 18.9601 36.175C18.7549 36.2448 18.5664 36.2917 18.3997 36.3177C18.1518 36.3552 17.8924 36.374 17.6299 36.374C16.9153 36.374 16.3539 36.2344 16.1351 36.1042C15.8091 35.9104 15.2268 35.3469 14.6622 34.5229C14.1799 33.8198 13.4278 32.9 12.5872 32.5156C11.8601 32.1833 11.0903 31.9927 10.4737 31.9927C10.3299 31.9927 10.1976 32.0031 10.082 32.0219C9.54347 32.1073 9.09347 32.4031 8.84867 32.8344C8.63722 33.2062 8.60388 33.6396 8.75701 34.0229C8.98513 34.5937 9.64347 35.049 10.156 35.3302C10.408 35.4687 10.9528 35.975 11.2705 36.4854C11.5091 36.8687 11.6195 37.1417 11.7726 37.5187C11.8633 37.7427 11.9633 37.9865 12.0987 38.2812C12.5883 39.3458 14.1164 40.2854 14.2893 40.3885C15.1289 40.8917 16.5403 41.0531 17.5778 41.1L17.706 41.1031H17.707C17.957 41.1031 18.3008 41.0792 18.7528 41.0292V43.751C18.7549 44.3021 18.1935 44.4271 17.4508 44.4156L18.0205 44.6073C20.2028 45.3875 22.5466 45.8333 24.9997 45.8333C27.4528 45.8333 29.7966 45.3875 31.982 44.6083L32.7143 44.3354C31.9737 44.3104 31.2664 44.1896 31.2601 43.7458Z" fill="black"/>
<path opacity="0.07" d="M32.064 44.5802C31.6411 44.6292 30.7296 44.4667 30.7296 43.7521V37.7063C30.7296 36.5667 30.388 35.4656 29.7546 34.5271C35.9161 33.5302 38.7952 30.2635 38.7952 24.3063C38.7952 21.976 38.0807 19.9375 36.6713 18.2417C36.814 17.8615 36.914 17.4604 36.9713 17.0469C37.1536 15.7177 36.9546 14.874 36.7796 14.1292L36.7515 14.0083C36.5661 13.2156 36.3473 12.6573 36.338 12.6344L36.2223 12.3406L35.9067 12.3073C35.9067 12.3073 35.7213 12.2875 35.439 12.2875C35.0421 12.2875 34.4557 12.326 33.9119 12.5115L33.7077 12.5802C32.964 12.8313 32.2609 13.0677 31.29 13.6469C30.9442 13.8531 30.5588 14.0958 30.1432 14.3698C28.5463 13.9521 26.8182 13.7396 25.0005 13.7396C23.165 13.7396 21.4223 13.9531 19.814 14.375C19.3942 14.099 19.0067 13.8552 18.6588 13.6469C17.688 13.0677 16.9848 12.8302 16.2411 12.5802L16.0369 12.5115C15.4942 12.3271 14.9067 12.2875 14.5098 12.2875C14.2275 12.2875 14.0421 12.3073 14.0421 12.3073L13.7275 12.3406L13.6098 12.6354C13.6005 12.6583 13.3817 13.2167 13.1963 14.0094L13.1682 14.1302C12.9921 14.875 12.7932 15.7177 12.9765 17.0469C13.0348 17.4708 13.139 17.8813 13.2869 18.2698C11.9046 19.9573 11.2046 21.9854 11.2046 24.3063C11.2046 30.2469 14.0859 33.5125 20.2525 34.5208C19.8411 35.1354 19.5536 35.8281 19.4057 36.5667C19.0619 36.7021 18.7505 36.7917 18.4775 36.8333C18.2036 36.875 17.9182 36.8958 17.6296 36.8958C16.9109 36.8958 16.2202 36.7615 15.8692 36.5531C15.4109 36.2813 14.7682 35.601 14.2317 34.8188C13.8671 34.2875 13.1411 33.3427 12.3692 32.9906C11.7077 32.6885 11.0171 32.5146 10.4723 32.5146C10.3577 32.5146 10.2536 32.5229 10.1619 32.5375C9.78066 32.5979 9.46608 32.8 9.29941 33.0938C9.16608 33.3271 9.1442 33.5969 9.23795 33.8313C9.42441 34.2979 10.115 34.7167 10.4036 34.875C10.7525 35.0667 11.3609 35.65 11.7098 36.2125C11.9713 36.6333 12.0952 36.9386 12.2525 37.324C12.3411 37.5417 12.438 37.7792 12.5692 38.0656C12.914 38.8146 13.9786 39.599 14.5536 39.9438C15.339 40.4146 16.7973 40.5458 17.5973 40.5813L17.713 40.5833C18.0244 40.5833 18.5463 40.5365 19.2702 40.4427V43.7521C19.2702 44.5635 18.238 44.5958 17.9848 44.5958C17.9525 44.5958 18.5088 44.7875 18.5088 44.7875C20.5536 45.4583 22.7317 45.8333 25.0005 45.8333C27.2692 45.8333 29.4473 45.4583 31.4911 44.7886C31.4911 44.7886 32.0963 44.576 32.064 44.5802Z" fill="black"/>
<path d="M38.2753 24.3062C38.2753 21.9 37.4607 19.9042 36.0701 18.3396C36.2212 18.001 36.3784 17.5469 36.4566 16.976C36.6357 15.6739 36.4243 14.8927 36.2451 14.1281C36.0659 13.3635 35.8545 12.826 35.8545 12.826C35.8545 12.826 34.8941 12.7281 34.0805 13.0052C33.267 13.2823 32.567 13.4937 31.5576 14.0958C31.0857 14.3771 30.6107 14.6854 30.2347 14.9354C28.6274 14.4896 26.8597 14.2604 25.0003 14.2604C23.1243 14.2604 21.3409 14.4906 19.7222 14.9396C19.3451 14.6885 18.867 14.3781 18.392 14.0948C17.3826 13.4927 16.6826 13.2812 15.8691 13.0042C15.0555 12.7271 14.0951 12.825 14.0951 12.825C14.0951 12.825 13.8836 13.3625 13.7045 14.1271C13.5253 14.8917 13.3139 15.6729 13.493 16.975C13.5732 17.5604 13.7357 18.0229 13.8909 18.3635C12.5264 19.9187 11.7264 21.9021 11.7264 24.3052C11.7264 30.5375 15.093 33.3823 21.2274 34.1333C20.5118 34.8896 20.0316 35.8583 19.8701 36.9364C19.467 37.1135 19.0024 37.2802 18.5555 37.3469C17.4055 37.5208 16.1899 37.3469 15.6045 37C15.0191 36.6531 14.3243 35.8719 13.8034 35.1114C13.3639 34.4698 12.7295 33.725 12.1545 33.4625C11.3951 33.1156 10.6566 32.9854 10.2451 33.05C9.83261 33.1156 9.63781 33.4187 9.72427 33.6364C9.81073 33.8531 10.2232 34.1792 10.6576 34.4177C11.092 34.6562 11.7649 35.3073 12.1555 35.9364C12.5909 36.6385 12.6764 37.0437 13.0451 37.8458C13.3045 38.4104 14.192 39.1156 14.8243 39.4948C15.367 39.8208 16.4514 40.0062 17.6243 40.0594C18.0295 40.0781 18.9868 39.9594 19.7941 39.8448V43.751C19.7941 44.4167 19.1847 44.9229 18.5534 44.8062C20.5795 45.4875 22.743 45.8333 25.0003 45.8333C27.2566 45.8333 29.4201 45.4875 31.4482 44.8083C30.818 44.9239 30.2087 44.4177 30.2087 43.7521V37.7062C30.2087 36.3219 29.6597 35.0708 28.7784 34.1385C34.868 33.4073 38.2753 30.6302 38.2753 24.3062ZM11.7076 34.0906C11.5472 34.0083 11.4607 33.8562 11.5149 33.7489C11.5691 33.6417 11.7441 33.6219 11.9045 33.7042C12.0649 33.7864 12.1514 33.9385 12.0972 34.0458C12.043 34.1531 11.868 34.1729 11.7076 34.0906ZM12.9701 34.8771C12.8857 34.9687 12.7045 34.9396 12.5649 34.8125C12.4253 34.6854 12.3805 34.5073 12.4649 34.4156C12.5493 34.3239 12.7305 34.3531 12.8701 34.4802C13.0097 34.6073 13.0545 34.7854 12.9701 34.8771ZM13.7555 36.1792C13.6493 36.2542 13.4691 36.1844 13.3534 36.0229C13.2378 35.8614 13.2305 35.6687 13.3368 35.5937C13.443 35.5187 13.6232 35.5885 13.7389 35.75C13.8534 35.9114 13.8618 36.1042 13.7555 36.1792ZM14.8836 37.1594C14.8118 37.276 14.6076 37.2812 14.4284 37.1719C14.2493 37.0625 14.1618 36.8792 14.2336 36.7625C14.3055 36.6458 14.5097 36.6406 14.6889 36.75C14.868 36.8594 14.9555 37.0427 14.8836 37.1594ZM15.9503 38.1187C15.7284 38.0917 15.5639 37.9531 15.5826 37.8094C15.6003 37.6656 15.7951 37.5719 16.0159 37.5989C16.2378 37.626 16.4024 37.7646 16.3836 37.9083C16.3659 38.051 16.1722 38.1458 15.9503 38.1187ZM17.6701 38.3677C17.4336 38.3542 17.2493 38.2187 17.2586 38.0667C17.268 37.9146 17.467 37.801 17.7034 37.8146C17.9399 37.8281 18.1243 37.9635 18.1149 38.1156C18.1055 38.2687 17.9066 38.3812 17.6701 38.3677ZM19.293 38.2052C19.0409 38.2052 18.8368 38.0739 18.8368 37.9125C18.8368 37.751 19.0409 37.6198 19.293 37.6198C19.5451 37.6198 19.7493 37.751 19.7493 37.9125C19.7493 38.0739 19.5441 38.2052 19.293 38.2052Z" fill="white"/>
</svg>
