<svg width="50" height="50" viewBox="0 0 50 50" fill="none" xmlns="http://www.w3.org/2000/svg">
<path d="M3.17615 0C1.43694 0 0 1.43694 0 3.17615V46.8238C0 48.5631 1.43694 50 3.17615 50H46.8238C48.5631 50 50 48.5677 50 46.8238V3.17615C50 1.43694 48.5677 0 46.8238 0H3.17615ZM3.17615 2.38095H46.8238C47.2656 2.38095 47.619 2.73438 47.619 3.17615V46.8238C47.619 47.2656 47.2656 47.619 46.8238 47.619H3.17615C2.73438 47.619 2.38095 47.2656 2.38095 46.8238V3.17615C2.38095 2.73438 2.73438 2.38095 3.17615 2.38095ZM22.619 22.619V37.5884C22.619 39.8856 21.7494 40.4762 20.2381 40.4762C18.657 40.4762 17.5595 39.4903 16.8341 38.2115L13.0952 40.4762C14.1788 42.7688 16.8341 45.2381 20.5171 45.2381C24.5908 45.2381 27.381 43.0711 27.381 38.3138V22.619H22.619ZM37.4442 22.619C33.3891 22.619 30.7896 25.2139 30.7896 28.6226C30.7896 32.3196 32.9706 34.0681 36.2491 35.4632L37.3837 35.9515C39.4531 36.8583 40.4762 37.4116 40.4762 38.9695C40.4762 40.2669 39.4903 41.2063 37.607 41.2063C35.3655 41.2063 34.3052 39.6856 33.3333 38.0952L29.7619 40.4762C31.0965 43.1129 33.4914 45.2381 37.7093 45.2381C42.0247 45.2381 45.2381 42.9967 45.2381 38.909C45.2381 35.1144 43.0618 33.4263 39.1974 31.7708L38.0627 31.2872C36.1142 30.4408 35.2679 29.8921 35.2679 28.5296C35.2679 27.4275 36.1142 26.5811 37.4442 26.5811C38.7509 26.5811 39.588 27.1345 40.3646 28.5296L43.9035 26.2602C42.4107 23.6235 40.332 22.619 37.4442 22.619Z" fill="url(#paint0_linear)"/>
<defs>
<linearGradient id="paint0_linear" x1="25" y1="0" x2="25" y2="50" gradientUnits="userSpaceOnUse">
<stop stop-color="#835AFD"/>
<stop offset="1" stop-color="#DA4FFE"/>
</linearGradient>
</defs>
</svg>
