<svg width="60" height="60" viewBox="0 0 60 60" fill="none" xmlns="http://www.w3.org/2000/svg">
<path d="M3.81138 0C1.72433 0 0 1.72433 0 3.81138V56.1886C0 58.2757 1.72433 60 3.81138 60H56.1886C58.2757 60 60 58.2812 60 56.1886V3.81138C60 1.72433 58.2812 0 56.1886 0H3.81138ZM3.81138 2.85714H56.1886C56.7188 2.85714 57.1429 3.28125 57.1429 3.81138V56.1886C57.1429 56.7188 56.7188 57.1429 56.1886 57.1429H3.81138C3.28125 57.1429 2.85714 56.7188 2.85714 56.1886V3.81138C2.85714 3.28125 3.28125 2.85714 3.81138 2.85714ZM27.1429 27.1429V45.106C27.1429 47.8627 26.0993 48.5714 24.2857 48.5714C22.3884 48.5714 21.0714 47.3884 20.2009 45.8538L15.7143 48.5714C17.0145 51.3225 20.2009 54.2857 24.6205 54.2857C29.5089 54.2857 32.8571 51.6853 32.8571 45.9766V27.1429H27.1429ZM44.933 27.1429C40.067 27.1429 36.9475 30.2567 36.9475 34.3471C36.9475 38.7835 39.5647 40.8817 43.4989 42.5558L44.8605 43.1417C47.3438 44.2299 48.5714 44.894 48.5714 46.7634C48.5714 48.3203 47.3884 49.4475 45.1283 49.4475C42.4386 49.4475 41.1663 47.6228 40 45.7143L35.7143 48.5714C37.3158 51.7355 40.1897 54.2857 45.2511 54.2857C50.4297 54.2857 54.2857 51.596 54.2857 46.6908C54.2857 42.1373 51.6741 40.1116 47.0368 38.125L45.6752 37.5446C43.3371 36.529 42.3214 35.8705 42.3214 34.2355C42.3214 32.9129 43.3371 31.8973 44.933 31.8973C46.5011 31.8973 47.5056 32.5614 48.4375 34.2355L52.6842 31.5123C50.8929 28.3482 48.3984 27.1429 44.933 27.1429Z" fill="#2849F7"/>
</svg>
