<svg width="50" height="50" viewBox="0 0 50 50" fill="none" xmlns="http://www.w3.org/2000/svg">
<path d="M10.4167 6.25C8.11458 6.25 6.25 8.11458 6.25 10.4167V39.5833C6.25 41.8854 8.11458 43.75 10.4167 43.75H39.5833C41.8854 43.75 43.75 41.8854 43.75 39.5833V10.4167C43.75 8.11458 41.8854 6.25 39.5833 6.25H10.4167ZM10.4167 10.4167H39.5833V39.5833H10.4167V10.4167ZM16.2069 13.1592C14.4215 13.1592 13.3504 14.2325 13.3504 15.6616C13.3504 17.0908 14.4216 18.16 16.0278 18.16C17.8132 18.16 18.8843 17.0908 18.8843 15.6616C18.8843 14.2325 17.8131 13.1592 16.2069 13.1592ZM13.4928 20.8333V35.4167H18.75V20.8333H13.4928ZM23.0876 20.8333V35.4167H28.3447V27.4455C28.3447 25.0726 30.0377 24.7314 30.5461 24.7314C31.0544 24.7314 32.4137 25.2413 32.4137 27.4455V35.4167H37.5V27.4455C37.5 22.8684 35.4661 20.8333 32.9224 20.8333C30.3786 20.8333 29.0218 21.6803 28.3447 22.8678V20.8333H23.0876Z" fill="#2849F7"/>
</svg>
