<svg width="155" height="28" viewBox="0 0 155 28" fill="none" xmlns="http://www.w3.org/2000/svg">
<path d="M27.2715 18.0312L28.1016 21H30.9922L26.4219 6.78125H23.9316L19.2734 21H22.1641L23.0039 18.0312H27.2715ZM23.6777 15.6973L25.1719 10.4629L26.627 15.6973H23.6777ZM32.9551 6V8.2168H36.1191V18.793H32.9551V21H41.8906V18.793H38.8633V6H32.9551ZM49.5273 21.1953C50.5495 21.1953 51.4349 20.9967 52.1836 20.5996C52.9323 20.2025 53.4792 19.7598 53.8242 19.2715L52.4668 17.8066C52.1543 18.2103 51.7474 18.513 51.2461 18.7148C50.7448 18.9167 50.2272 19.0176 49.6934 19.0176C49.3158 19.0176 48.9674 18.959 48.6484 18.8418C48.3294 18.7246 48.0462 18.5586 47.7988 18.3438C47.5579 18.1354 47.3659 17.9043 47.2227 17.6504C47.0794 17.39 46.9622 17.0482 46.8711 16.625V16.5957H54.0391V15.4434C54.0391 14.6686 53.9316 13.9622 53.7168 13.3242C53.502 12.6797 53.1895 12.1296 52.7793 11.6738C52.3626 11.2181 51.8548 10.8665 51.2559 10.6191C50.6634 10.3652 49.9863 10.2383 49.2246 10.2383C48.4889 10.2383 47.8086 10.3717 47.1836 10.6387C46.5586 10.9056 46.0182 11.2799 45.5625 11.7617C45.1068 12.2435 44.752 12.8197 44.498 13.4902C44.2441 14.1543 44.1172 14.89 44.1172 15.6973V16.0879C44.1172 16.7975 44.2441 17.4648 44.498 18.0898C44.7585 18.7083 45.1263 19.2454 45.6016 19.7012C46.0768 20.1634 46.6465 20.528 47.3105 20.7949C47.9746 21.0618 48.7135 21.1953 49.5273 21.1953ZM49.2051 12.4355C49.5501 12.4355 49.8529 12.4909 50.1133 12.6016C50.3802 12.7057 50.6048 12.849 50.7871 13.0312C50.9694 13.2201 51.1126 13.4414 51.2168 13.6953C51.321 13.9492 51.373 14.2194 51.373 14.5059V14.7207H46.9199C46.985 14.3757 47.0827 14.0632 47.2129 13.7832C47.3431 13.5033 47.5059 13.2624 47.7012 13.0605C47.89 12.8587 48.1113 12.7057 48.3652 12.6016C48.6191 12.4909 48.8991 12.4355 49.2051 12.4355ZM61.2461 13.7344L58.9609 10.4336H56.041L59.5762 15.6191L55.9043 21H58.8438L61.2559 17.543L63.6875 21H66.6172L62.9453 15.6191L66.4902 10.4336H63.5703L61.2461 13.7344ZM90.7871 9.01758V6.78125H79.3223V9.01758H83.6484V21H86.4023V9.01758H90.7871ZM95.1914 19.4277C95.1914 19.929 95.3607 20.349 95.6992 20.6875C96.0378 21.026 96.4967 21.1953 97.0762 21.1953C97.6491 21.1953 98.1048 21.0293 98.4434 20.6973C98.7884 20.3587 98.9609 19.9355 98.9609 19.4277C98.9609 18.9199 98.7917 18.4935 98.4531 18.1484C98.1211 17.8034 97.6621 17.6309 97.0762 17.6309C96.4837 17.6309 96.0215 17.8066 95.6895 18.1582C95.3574 18.5033 95.1914 18.9264 95.1914 19.4277ZM113.385 15.1113V12.8848H107.291V9.01758H114.146V6.78125H104.537V21H107.291V15.1113H113.385ZM119.215 19.4277C119.215 19.929 119.384 20.349 119.723 20.6875C120.061 21.026 120.52 21.1953 121.1 21.1953C121.673 21.1953 122.128 21.0293 122.467 20.6973C122.812 20.3587 122.984 19.9355 122.984 19.4277C122.984 18.9199 122.815 18.4935 122.477 18.1484C122.145 17.8034 121.686 17.6309 121.1 17.6309C120.507 17.6309 120.045 17.8066 119.713 18.1582C119.381 18.5033 119.215 18.9264 119.215 19.4277Z" fill="#E6E6E6"/>
<path d="M14.7744 1.31871L2 14L14.7744 26.6813" stroke="#2849F7" stroke-width="2"/>
<path d="M140.226 26.6813L153 14L140.226 1.31871" stroke="#2849F7" stroke-width="2"/>
<line y1="-1" x2="24" y2="-1" transform="matrix(-0.415725 0.90949 -0.911765 -0.410712 135.541 3)" stroke="#2849F7" stroke-width="2"/>
</svg>
