<svg width="136" height="24" viewBox="0 0 136 24" fill="none" xmlns="http://www.w3.org/2000/svg">
<path d="M24.6172 15.625L25.2812 18H27.5938L23.9375 6.625H21.9453L18.2188 18H20.5312L21.2031 15.625H24.6172ZM21.7422 13.7578L22.9375 9.57031L24.1016 13.7578H21.7422ZM29.1641 6V7.77344H31.6953V16.2344H29.1641V18H36.3125V16.2344H33.8906V6H29.1641ZM42.4219 18.1562C43.2396 18.1562 43.9479 17.9974 44.5469 17.6797C45.1458 17.362 45.5833 17.0078 45.8594 16.6172L44.7734 15.4453C44.5234 15.7682 44.1979 16.0104 43.7969 16.1719C43.3958 16.3333 42.9818 16.4141 42.5547 16.4141C42.2526 16.4141 41.974 16.3672 41.7188 16.2734C41.4635 16.1797 41.237 16.0469 41.0391 15.875C40.8464 15.7083 40.6927 15.5234 40.5781 15.3203C40.4635 15.112 40.3698 14.8385 40.2969 14.5V14.4766H46.0312V13.5547C46.0312 12.9349 45.9453 12.3698 45.7734 11.8594C45.6016 11.3438 45.3516 10.9036 45.0234 10.5391C44.6901 10.1745 44.2839 9.89323 43.8047 9.69531C43.3307 9.49219 42.7891 9.39062 42.1797 9.39062C41.5911 9.39062 41.0469 9.4974 40.5469 9.71094C40.0469 9.92448 39.6146 10.224 39.25 10.6094C38.8854 10.9948 38.6016 11.4557 38.3984 11.9922C38.1953 12.5234 38.0938 13.112 38.0938 13.7578V14.0703C38.0938 14.638 38.1953 15.1719 38.3984 15.6719C38.6068 16.1667 38.901 16.5964 39.2812 16.9609C39.6615 17.3307 40.1172 17.6224 40.6484 17.8359C41.1797 18.0495 41.7708 18.1562 42.4219 18.1562ZM42.1641 11.1484C42.4401 11.1484 42.6823 11.1927 42.8906 11.2812C43.1042 11.3646 43.2839 11.4792 43.4297 11.625C43.5755 11.776 43.6901 11.9531 43.7734 12.1562C43.8568 12.3594 43.8984 12.5755 43.8984 12.8047V12.9766H40.3359C40.388 12.7005 40.4661 12.4505 40.5703 12.2266C40.6745 12.0026 40.8047 11.8099 40.9609 11.6484C41.112 11.487 41.2891 11.3646 41.4922 11.2812C41.6953 11.1927 41.9193 11.1484 42.1641 11.1484ZM51.7969 12.1875L49.9688 9.54688H47.6328L50.4609 13.6953L47.5234 18H49.875L51.8047 15.2344L53.75 18H56.0938L53.1562 13.6953L55.9922 9.54688H53.6562L51.7969 12.1875ZM75.4297 8.41406V6.625H66.2578V8.41406H69.7188V18H71.9219V8.41406H75.4297ZM78.9531 16.7422C78.9531 17.1432 79.0885 17.4792 79.3594 17.75C79.6302 18.0208 79.9974 18.1562 80.4609 18.1562C80.9193 18.1562 81.2839 18.0234 81.5547 17.7578C81.8307 17.487 81.9688 17.1484 81.9688 16.7422C81.9688 16.3359 81.8333 15.9948 81.5625 15.7188C81.2969 15.4427 80.9297 15.3047 80.4609 15.3047C79.987 15.3047 79.6172 15.4453 79.3516 15.7266C79.0859 16.0026 78.9531 16.3411 78.9531 16.7422ZM93.5078 13.2891V11.5078H88.6328V8.41406H94.1172V6.625H86.4297V18H88.6328V13.2891H93.5078ZM98.1719 16.7422C98.1719 17.1432 98.3073 17.4792 98.5781 17.75C98.849 18.0208 99.2161 18.1562 99.6797 18.1562C100.138 18.1562 100.503 18.0234 100.773 17.7578C101.049 17.487 101.188 17.1484 101.188 16.7422C101.188 16.3359 101.052 15.9948 100.781 15.7188C100.516 15.4427 100.148 15.3047 99.6797 15.3047C99.2057 15.3047 98.8359 15.4453 98.5703 15.7266C98.3047 16.0026 98.1719 16.3411 98.1719 16.7422Z" fill="#835AFD"/>
<path d="M12.6265 0.999997L2.0199 11.6066L12.6265 22.2132" stroke="url(#paint0_linear)" stroke-width="2"/>
<path d="M123.627 22.6066L134.233 12L123.627 1.3934" stroke="url(#paint1_linear)" stroke-width="2"/>
<line x1="119.588" y1="2.41321" x2="110.911" y2="21.5365" stroke="url(#paint2_linear)" stroke-width="2"/>
<defs>
<linearGradient id="paint0_linear" x1="7.3232" y1="6.3033" x2="18.5" y2="23.5" gradientUnits="userSpaceOnUse">
<stop stop-color="#835AFD"/>
<stop offset="1" stop-color="#DA4FFE"/>
</linearGradient>
<linearGradient id="paint1_linear" x1="127.5" y1="26.5" x2="136" y2="3" gradientUnits="userSpaceOnUse">
<stop stop-color="#835AFD"/>
<stop offset="1" stop-color="#DA4FFE"/>
</linearGradient>
<linearGradient id="paint2_linear" x1="117.5" y1="20" x2="114" y2="6" gradientUnits="userSpaceOnUse">
<stop stop-color="#835AFD"/>
<stop offset="1" stop-color="#DA4FFE"/>
</linearGradient>
</defs>
</svg>
