<svg width="40" height="40" viewBox="0 0 40 40" fill="none" xmlns="http://www.w3.org/2000/svg">
<path d="M12.3438 0.937496C6.34375 3.5 1.78125 9.03125 0.5 15.375C-0.125 18.4062 -0.125 20.625 0.5 23.6875C2.0625 31.5 8.5 37.9375 16.3125 39.5C22.2188 40.7187 27.9688 39.4062 32.6875 35.8437C35.75 33.5 38.5312 29.6875 39.5938 26.3437C40.375 23.9062 40.0625 23.75 36.4375 24.9687C29.9688 27.0937 23.7812 25.6875 19.0312 20.9375C14.375 16.2812 12.9062 9.96875 15 3.65625C15.5312 2.09375 15.9062 0.656246 15.8125 0.406246C15.5625 -0.218754 14.7812 -0.0937538 12.3438 0.937496ZM12.5938 4.59375C11.9688 7 11.9688 11.25 12.625 13.7187C14.3125 20.1875 19.8125 25.6875 26.2812 27.375C28.75 28.0312 33 28.0312 35.4062 27.4062C36.375 27.1562 37.1875 27.0312 37.1875 27.1562C37.1875 27.5625 34.875 31.0312 33.7812 32.2812C32.25 34 28.875 36.0937 26.0938 37.0625C22.5625 38.25 18.375 38.25 14.9062 37.0625C10.6875 35.625 7.53125 33.25 5.1875 29.7187C1.03125 23.4687 1.03125 15.5937 5.1875 9.34375C5.9375 8.1875 7.09375 6.78125 7.71875 6.21875C8.96875 5.125 12.4375 2.8125 12.8438 2.8125C12.9688 2.8125 12.8438 3.625 12.5938 4.59375Z" fill="white"/>
</svg>
