<svg width="60" height="60" viewBox="0 0 60 60" fill="none" xmlns="http://www.w3.org/2000/svg">
<g clip-path="url(#clip0_537:101)">
<path d="M0.0025 43.8012H2.4025V34.945L5.73625 42.5162C6.1475 43.46 6.71 43.7937 7.81375 43.7937C8.9175 43.7937 9.4575 43.46 9.86875 42.5162L13.2025 35.1387V43.8012H15.6025V34.7287C15.6025 33.8575 15.2563 33.435 14.5413 33.2175C12.8325 32.68 11.685 33.1437 11.1662 34.3075L7.7475 42.0075L4.43625 34.3075C3.93875 33.145 2.77125 32.68 1.06125 33.2175C0.34625 33.435 0 33.8562 0 34.7275V43.8H0.0025V43.8012Z" fill="#2849F7"/>
<path d="M16.8008 36.6012H19.2008V41.67C19.182 41.92 19.2808 42.5838 20.4383 42.6013C21.0283 42.6113 23.9645 42.6013 24.0008 42.6013V36.6012H26.4008C26.4108 36.6012 26.4008 44.0613 26.4008 44.0925C26.4133 45.9325 24.1158 46.17 23.0595 46.2013H16.802V45.0013C16.8145 45.0013 22.7858 45.0025 22.8033 45.0013C24.1633 44.8575 24.002 44.1088 24.002 43.8813V43.8013H20.237C18.1495 43.7825 16.8183 42.8625 16.8033 41.8138C16.8008 41.7163 16.8483 36.6462 16.8008 36.6012Z" fill="#2849F7"/>
<path d="M27.6014 43.8013H33.6102C34.3977 43.8013 35.1627 43.6363 35.7702 43.3513C36.7827 42.8863 37.2002 42.2575 37.2002 41.4313V39.7213C37.2002 37.8763 34.9127 37.8013 33.6002 37.8013H31.2002C30.2564 37.8013 30.1127 37.2313 30.0002 36.6013V35.4013C30.1127 34.9213 30.3227 34.2763 31.1539 34.2013C32.1202 34.2013 37.1989 34.2013 37.1989 34.2013V33.0013H31.4914C30.5477 33.0013 27.5989 33.1138 27.5989 35.4013V36.885C27.5989 37.935 28.5214 38.79 30.5239 39C30.7489 39.015 30.9739 39.03 31.1977 39.03C31.1977 39.03 33.5302 38.985 33.5977 39C34.9477 39 34.7977 40.05 34.7977 40.2V41.4C34.7977 41.565 34.7602 42.6 33.5839 42.6C33.4939 42.6 27.5977 42.6 27.5977 42.6V43.8013H27.6014Z" fill="#835AFD"/>
<path d="M50.4004 41.35C50.4004 42.7988 51.2191 43.6113 53.3904 43.7738C53.5929 43.7875 53.7966 43.8 54.0004 43.8H60.0004V42.6H54.4566C53.2179 42.6 52.8004 42.08 52.8004 41.3363V33H50.4004V41.35Z" fill="#835AFD"/>
<path d="M38.3799 41.4012V35.4013C38.3799 34.1263 39.0049 33.2463 40.7749 33.0013H41.6149H45.9236H46.5799C48.3499 33.2463 49.1799 34.125 49.1799 35.4013V41.3788C49.1799 42.4125 48.9111 42.9675 48.0349 43.3275L49.8949 45H47.1949L45.8574 43.8H44.2861L41.6161 43.815C41.2299 43.815 40.8224 43.7612 40.3749 43.6387C39.0324 43.2725 38.3799 42.5675 38.3799 41.4012ZM40.7799 41.4012C40.9024 41.985 41.3711 42.6013 42.2049 42.6013H44.5349L43.1999 41.4012H45.9186L46.5674 42.0038C46.5674 42.0038 46.7999 41.8137 46.7999 41.4012C46.7999 40.9887 46.7799 35.4013 46.7799 35.4013C46.6574 34.8588 46.1074 34.2013 45.2949 34.2013H42.2061C41.2699 34.2013 40.7811 34.8863 40.7811 35.5238L40.7799 41.4012Z" fill="#835AFD"/>
<path d="M57.7484 31.7362C56.4597 31.7012 55.4759 31.8212 54.6347 32.175C54.3959 32.2762 54.0147 32.2787 53.9747 32.5787C54.1059 32.7162 54.1259 32.9225 54.2309 33.0912C54.4309 33.4162 54.7709 33.8525 55.0734 34.08C55.4047 34.33 55.7459 34.5975 56.0997 34.8137C56.7297 35.1975 57.4334 35.4175 58.0409 35.8025C58.3984 36.0287 58.7534 36.3162 59.1034 36.5712C59.2759 36.6987 59.3909 36.895 59.6159 36.975C59.6159 36.9625 59.6159 36.9512 59.6159 36.9387C59.4984 36.7887 59.4672 36.5825 59.3597 36.425C59.2009 36.2662 59.0422 36.1075 58.8834 35.9487C58.4184 35.3312 57.8259 34.7875 57.1984 34.3375C56.6972 33.9775 55.5759 33.4912 55.3659 32.9087C55.3534 32.8962 55.3422 32.885 55.3284 32.8712C55.6834 32.8312 56.0997 32.7025 56.4272 32.615C56.9784 32.4675 57.4697 32.5062 58.0384 32.3587C58.2947 32.285 58.5509 32.2125 58.8072 32.1387C58.8072 32.09 58.8072 32.0412 58.8072 31.9925C58.5197 31.6975 58.3134 31.3075 58.0009 31.04C57.1797 30.3412 56.2847 29.6437 55.3634 29.0612C54.8522 28.7387 54.2197 28.5287 53.6784 28.255C53.4959 28.1625 53.1759 28.115 53.0559 27.9625C52.7709 27.6 52.6172 27.1387 52.3972 26.7175C51.9372 25.8325 51.4847 24.865 51.0784 23.9337C50.7997 23.2987 50.6184 22.6712 50.2722 22.1012C48.6084 19.3662 46.8172 17.715 44.0447 16.0925C43.4547 15.7475 42.7434 15.6112 41.9922 15.4325C41.5884 15.4087 41.1859 15.3837 40.7822 15.3587C40.5359 15.255 40.2809 14.955 40.0484 14.8087C39.1297 14.2275 36.7722 12.965 36.0922 14.625C35.6622 15.6725 36.7347 16.695 37.1184 17.2262C37.3872 17.5987 37.7322 18.0162 37.9247 18.4362C38.0509 18.7112 38.0734 18.9875 38.1809 19.2787C38.4472 19.9962 38.8684 20.8137 39.2134 21.4775C39.3872 21.8137 39.5797 22.1662 39.7997 22.4662C39.9347 22.65 40.1659 22.7312 40.2034 23.0162C39.9772 23.3325 39.9647 23.8237 39.8372 24.2262C39.2647 26.0325 39.4809 28.2762 40.3134 29.6112C40.5684 30.0212 41.1709 30.9012 41.9984 30.5637C42.7222 30.2687 42.5609 29.355 42.7672 28.5487C42.8134 28.3662 42.7847 28.2325 42.8772 28.11C42.8772 28.1225 42.8772 28.1337 42.8772 28.1475C43.0972 28.5862 43.3159 29.0275 43.5372 29.4662C44.0259 30.2525 44.8922 31.0737 45.6247 31.6287C46.0047 31.9162 46.3047 32.4137 46.7972 32.5812C46.7972 32.5687 46.7972 32.5575 46.7972 32.5437C46.7847 32.5437 46.7734 32.5437 46.7597 32.5437C46.6647 32.395 46.5147 32.3337 46.3934 32.2137C46.1072 31.9325 45.7872 31.5837 45.5509 31.2612C44.8834 30.355 44.2934 29.3625 43.7559 28.33C43.4997 27.8362 43.2759 27.2937 43.0597 26.7912C42.9759 26.5975 42.9772 26.305 42.8034 26.205C42.5659 26.5725 42.2184 26.87 42.0347 27.3037C41.7422 27.9975 41.7034 28.845 41.5959 29.7212C41.5309 29.7437 41.5597 29.7287 41.5222 29.7575C41.0122 29.6337 40.8322 29.11 40.6422 28.6587C40.1622 27.5187 40.0734 25.6837 40.4959 24.3725C40.6047 24.0325 41.0984 22.9637 40.8997 22.65C40.8047 22.3362 40.4897 22.155 40.3147 21.9162C40.0959 21.6212 39.8797 21.2312 39.7284 20.89C39.3359 20.0012 38.9634 18.9675 38.5497 18.0687C38.3522 17.6387 38.0184 17.205 37.7434 16.8237C37.4397 16.4012 37.0984 16.09 36.8634 15.5787C36.7797 15.3975 36.6659 15.1062 36.7897 14.9187C36.8297 14.7925 36.8847 14.74 37.0097 14.6987C37.2222 14.5337 37.8134 14.7525 38.0359 14.845C38.6234 15.0887 39.1134 15.3212 39.6109 15.6512C39.8497 15.81 40.0909 16.1162 40.3797 16.2012C40.4897 16.2012 40.5997 16.2012 40.7097 16.2012C41.2259 16.32 41.8034 16.2387 42.2847 16.385C43.1372 16.6437 43.8997 17.0462 44.5922 17.4837C46.7047 18.8175 48.4309 20.715 49.6122 22.98C49.8022 23.345 49.8847 23.6925 50.0509 24.0787C50.3884 24.8587 50.8147 25.6612 51.1497 26.4237C51.4847 27.185 51.8122 27.9525 52.2859 28.5862C52.5359 28.9187 53.4984 29.0975 53.9347 29.2825C54.2409 29.4125 54.7434 29.5462 55.0334 29.7212C55.5884 30.0562 56.1259 30.455 56.6447 30.82C56.9097 31.0037 57.7084 31.405 57.7484 31.7362Z" fill="#2849F7"/>
<path d="M41.3729 17.7788C41.1041 17.7738 40.9141 17.8075 40.7129 17.8525C40.7129 17.865 40.7129 17.8763 40.7129 17.89C40.7254 17.89 40.7366 17.89 40.7504 17.89C40.8791 18.1525 41.1041 18.3238 41.2629 18.55C41.3854 18.8063 41.5066 19.0625 41.6291 19.3188C41.6416 19.3063 41.6529 19.295 41.6654 19.2825C41.8916 19.1225 41.9966 18.8675 41.9954 18.4763C41.9041 18.38 41.8904 18.26 41.8116 18.1463C41.7066 17.9925 41.5041 17.9063 41.3729 17.7788Z" fill="#2849F7"/>
</g>
<defs>
<clipPath id="clip0_537:101">
<rect width="60" height="60" fill="white"/>
</clipPath>
</defs>
</svg>
