<svg width="60" height="60" viewBox="0 0 60 60" fill="none" xmlns="http://www.w3.org/2000/svg">
<path d="M29.9998 56.25C29.2916 56.2502 28.5957 56.064 27.9823 55.71L21.5623 51.9094C20.6042 51.3731 21.0711 51.1837 21.3879 51.0731C22.407 50.7583 23.3826 50.3174 24.2923 49.7606C24.3685 49.7254 24.4523 49.7102 24.536 49.7164C24.6197 49.7226 24.7004 49.7501 24.7704 49.7962L29.7036 52.7269C29.7954 52.7755 29.8978 52.8009 30.0017 52.8009C30.1056 52.8009 30.208 52.7755 30.2998 52.7269L49.5373 41.6231C49.6273 41.5692 49.7018 41.4928 49.7534 41.4014C49.805 41.31 49.832 41.2068 49.8317 41.1019V18.8906C49.8318 18.784 49.8044 18.6792 49.7521 18.5862C49.6999 18.4933 49.6246 18.4154 49.5336 18.36L30.2961 7.26561C30.2054 7.21452 30.103 7.18767 29.9989 7.18767C29.8948 7.18767 29.7924 7.21452 29.7017 7.26561L10.4754 18.3637C10.3837 18.418 10.3076 18.495 10.2544 18.5873C10.2012 18.6796 10.1727 18.7841 10.1717 18.8906V41.0925C10.172 41.1972 10.2 41.2999 10.2531 41.3902C10.3061 41.4805 10.3822 41.555 10.4736 41.6062L15.7498 44.6512C18.6092 46.08 20.3604 44.3962 20.3604 42.705V20.7844C20.3604 20.6352 20.4197 20.4921 20.5252 20.3866C20.6307 20.2811 20.7738 20.2219 20.9229 20.2219H23.3604C23.5096 20.2219 23.6527 20.2811 23.7582 20.3866C23.8637 20.4921 23.9229 20.6352 23.9229 20.7844V42.7069C23.9229 46.5225 21.8454 48.7069 18.2267 48.7069C16.6655 48.7341 15.1288 48.3166 13.7961 47.5031L8.73919 44.6025C8.1253 44.245 7.61591 43.7327 7.26189 43.1168C6.90788 42.5009 6.72161 41.8029 6.72169 41.0925V18.8906C6.71987 18.1791 6.90535 17.4796 7.25949 16.8625C7.61363 16.2454 8.12396 15.7324 8.73919 15.375L27.9786 4.26748C28.5983 3.92842 29.2934 3.75071 29.9998 3.75071C30.7062 3.75071 31.4013 3.92842 32.0211 4.26748L51.2586 15.375C51.8724 15.7318 52.3819 16.2433 52.7362 16.8586C53.0906 17.4738 53.2774 18.1712 53.2779 18.8812V41.0925C53.2769 41.8029 53.0899 42.5006 52.7357 43.1164C52.3814 43.7322 51.8722 44.2445 51.2586 44.6025L32.0211 55.71C31.4065 56.0646 30.7093 56.2508 29.9998 56.25Z" fill="#2849F7"/>
<path d="M26.3516 33.6619C26.3516 33.5127 26.4108 33.3696 26.5163 33.2641C26.6218 33.1586 26.7649 33.0994 26.9141 33.0994H29.4022C29.5351 33.0998 29.6636 33.1473 29.7649 33.2335C29.8661 33.3196 29.9336 33.4388 29.9553 33.57C30.3303 36.1031 31.4553 37.38 36.5422 37.38C40.5941 37.38 42.3209 36.4631 42.3209 34.3125C42.3209 33.0731 41.8316 32.1525 35.5334 31.5356C30.2684 31.0144 27.0134 29.8481 27.0134 25.6406C27.0134 21.7594 30.2853 19.4437 35.7697 19.4437C41.9328 19.4437 44.9834 21.5831 45.3697 26.1731C45.3756 26.2497 45.3657 26.3268 45.3407 26.3994C45.3157 26.4721 45.276 26.5389 45.2242 26.5956C45.1724 26.6524 45.1094 26.6979 45.0393 26.7294C44.9692 26.7609 44.8934 26.7777 44.8166 26.7787H42.3116C42.1859 26.777 42.0644 26.7332 41.9666 26.6543C41.8687 26.5755 41.8 26.4662 41.7716 26.3437C41.1734 23.6794 39.7091 22.8281 35.7716 22.8281C31.3466 22.8281 30.8328 24.3694 30.8328 25.5244C30.8328 26.9231 31.4403 27.3319 37.4141 28.1212C43.3259 28.9031 46.1347 30.0094 46.1347 34.1644C46.1347 38.3569 42.6397 40.7569 36.5441 40.7569C28.1159 40.7681 26.3516 36.9037 26.3516 33.6619Z" fill="#2849F7"/>
</svg>
