<svg width="25" height="25" viewBox="0 0 25 25" fill="none" xmlns="http://www.w3.org/2000/svg">
<g clip-path="url(#clip0)">
<path d="M24.8875 19.9261L24.7631 19.5512C24.4684 18.6752 23.5024 17.7616 22.615 17.5209L19.3305 16.6237C18.4398 16.3814 17.1692 16.7072 16.5176 17.3588L15.3289 18.5476C11.0088 17.3802 7.62127 13.9925 6.45551 9.67336L7.64427 8.48459C8.29594 7.83292 8.62173 6.56405 8.37941 5.67336L7.48379 2.38727C7.24147 1.4982 6.3262 0.532217 5.4519 0.24075L5.07697 0.114691C4.201 -0.176776 2.95173 0.117992 2.3001 0.769613L0.521965 2.54938C0.204302 2.86536 0.00127589 3.76916 0.00127589 3.77246C-0.0609155 9.41788 2.15272 14.857 6.14607 18.8504C10.1296 22.8339 15.5483 25.0443 21.1774 24.9969C21.2068 24.9969 22.1368 24.7971 22.4545 24.481L24.2326 22.7029C24.8842 22.0513 25.1789 20.8021 24.8875 19.9261Z" fill="#F4F4F4"/>
</g>
<defs>
<clipPath id="clip0">
<rect width="25" height="25" fill="white"/>
</clipPath>
</defs>
</svg>
