<svg width="100" height="100" viewBox="0 0 100 100" fill="none" xmlns="http://www.w3.org/2000/svg">
<circle cx="50" cy="50" r="50" fill="#2849F7"/>
<g clip-path="url(#clip0_537:300)">
<path d="M79.7301 67.8228L79.4314 66.923C78.7241 64.8207 76.4058 62.628 74.2759 62.0504L66.3932 59.897C64.2555 59.3154 61.2062 60.0974 59.6422 61.6613L56.7893 64.5142C46.4212 61.7126 38.291 53.5822 35.4932 43.2162L38.3462 40.3631C39.9103 38.7991 40.6921 35.7538 40.1106 33.6161L37.9611 25.7295C37.3795 23.5958 35.1829 21.2774 33.0846 20.5779L32.1847 20.2754C30.0824 19.5758 27.0841 20.2833 25.5203 21.8472L21.2527 26.1186C20.4903 26.877 20.0031 29.0461 20.0031 29.054C19.8538 42.603 25.1665 55.6569 34.7506 65.241C44.3111 74.8015 57.316 80.1065 70.8257 79.9925C70.8964 79.9925 73.1283 79.5131 73.8907 78.7546L78.1583 74.4871C79.7222 72.9233 80.4295 69.9252 79.7301 67.8228Z" fill="#F4F4F4"/>
</g>
<defs>
<clipPath id="clip0_537:300">
<rect width="60" height="60" fill="white" transform="translate(20 20)"/>
</clipPath>
</defs>
</svg>
