<svg width="50" height="50" viewBox="0 0 50 50" fill="none" xmlns="http://www.w3.org/2000/svg">
<g clip-path="url(#clip0)">
<path d="M25 36.125C10.7475 36.125 0 31.4625 0 25C0 18.5375 10.7475 13.75 25 13.75C39.2525 13.75 50 18.5375 50 25C50 31.4625 39.2525 36.125 25 36.125ZM25 17.415C12.8387 17.415 3.59375 21.4975 3.59375 25.0787C3.59375 28.66 12.8387 32.585 25 32.585C37.1613 32.585 46.4062 28.5025 46.4062 24.9212C46.4062 21.34 37.1613 17.415 25 17.415Z" fill="url(#paint0_linear)"/>
<path d="M15.5026 47.5C15.5014 47.5 15.5026 47.5 15.5026 47.5C14.3389 47.5 13.2764 47.23 12.3426 46.6975C10.8176 45.8263 9.72387 44.2875 9.17762 42.245C7.74512 36.8925 10.0564 27.8925 15.0689 19.315C20.9501 9.25877 28.7589 2.50377 34.4989 2.50377C35.6614 2.50377 36.7239 2.77377 37.6576 3.30627C39.1801 4.17502 40.2751 5.71252 40.8214 7.75377C42.2551 13.1063 39.9426 22.1075 34.9276 30.685C29.0514 40.7425 21.2439 47.5 15.5026 47.5ZM34.4989 6.25377C30.8889 6.25377 23.9876 11.495 18.3064 21.2075C13.1526 30.0275 11.6414 37.3438 12.8014 41.275C13.1151 42.3363 13.5576 43.0725 14.2026 43.44C17.1539 45.125 25.2139 39.8775 31.6914 28.7938C36.8476 19.9725 38.5164 12.8125 37.1989 8.72502C36.8601 7.67377 36.4439 6.93127 35.8001 6.56502C35.4339 6.35502 35.0076 6.25377 34.4989 6.25377Z" fill="url(#paint1_linear)"/>
<path d="M34.4989 47.4962C28.7526 47.495 20.9451 40.74 15.0689 30.685C10.0564 22.1075 7.74512 13.1062 9.17762 7.75498C9.72387 5.71248 10.8176 4.17373 12.3414 3.30373C13.2764 2.76998 14.3389 2.49998 15.5001 2.49998C21.2439 2.49998 29.0501 9.25748 34.9276 19.315C39.9414 27.8912 42.2526 36.8925 40.8201 42.2462C40.2726 44.2875 39.1789 45.825 37.6576 46.6937C36.7239 47.2262 35.6601 47.4962 34.4989 47.4962ZM15.5001 6.24998C14.9914 6.24998 14.5664 6.35248 14.2001 6.55998C13.5564 6.92748 13.1076 7.66123 12.8001 8.72498C11.6401 12.735 13.1514 19.9737 18.3051 28.7937C23.9814 38.505 30.8839 43.7462 34.4976 43.7462C35.0076 43.7462 35.4326 43.6437 35.7989 43.435C36.4414 43.07 36.9026 42.34 37.1964 41.275C38.2801 37.3425 36.8451 30.025 31.6901 21.2062C26.0139 11.4925 19.1126 6.24998 15.5001 6.24998Z" fill="url(#paint2_linear)"/>
<path d="M29.375 25C29.375 27.4188 27.4188 29.375 25 29.375C22.5813 29.375 20.625 27.4188 20.625 25C20.625 22.5813 22.5813 20.625 25 20.625C27.4188 20.625 29.375 22.5813 29.375 25Z" fill="url(#paint3_linear)"/>
<path d="M25 30C22.2425 30 20 27.7575 20 25C20 22.2425 22.2425 20 25 20C27.7575 20 30 22.2425 30 25C30 27.7575 27.7575 30 25 30ZM25 21.25C22.9325 21.25 21.25 22.9325 21.25 25C21.25 27.0675 22.9325 28.75 25 28.75C27.0675 28.75 28.75 27.0675 28.75 25C28.75 22.9325 27.0675 21.25 25 21.25Z" fill="url(#paint4_linear)"/>
<path d="M25 35.085C11.6825 35.085 1.25 30.655 1.25 25C1.25 19.345 11.6825 14.915 25 14.915C38.3175 14.915 48.75 19.345 48.75 25C48.75 30.655 38.3175 35.085 25 35.085ZM25 16.165C12.8038 16.165 2.5 20.2112 2.5 25C2.5 29.7887 12.8038 33.835 25 33.835C37.1963 33.835 47.5 29.79 47.5 25C47.5 20.21 37.1963 16.165 25 16.165Z" fill="url(#paint5_linear)"/>
<path d="M15.5026 46.25C15.5013 46.25 15.5026 46.25 15.5026 46.25C14.5588 46.25 13.7051 46.035 12.9613 45.6113C11.7163 44.9 10.8501 43.6588 10.3838 41.9213C9.0326 36.875 11.2951 28.2488 16.1463 19.945C21.7239 10.4125 29.2701 3.75376 34.4989 3.75376C35.4414 3.75376 36.2964 3.96876 37.0389 4.39251C38.2826 5.10251 39.1489 6.34251 39.6151 8.07751C40.9664 13.1238 38.7039 21.75 33.8501 30.055C28.2764 39.59 20.7326 46.25 15.5026 46.25ZM34.4989 5.00376C29.7689 5.00376 22.5051 11.5525 17.2276 20.5763C12.6088 28.4825 10.3438 36.93 11.5926 41.5988C11.9688 43.0025 12.6376 43.9863 13.5826 44.5263C14.1338 44.84 14.7788 45 15.5013 45C20.2326 45 27.4951 38.45 32.7689 29.4238C37.3901 21.5163 39.6564 13.0675 38.4051 8.40126C38.0301 7.00001 37.3614 6.01626 36.4176 5.47876C35.8664 5.16376 35.2214 5.00376 34.4989 5.00376Z" fill="url(#paint6_linear)"/>
<path d="M34.4988 46.2463C29.2651 46.245 21.7188 39.5875 16.1476 30.055C11.2951 21.7513 9.03381 13.125 10.3851 8.07877C10.8501 6.34127 11.7163 5.10002 12.9626 4.38877C13.7051 3.96502 14.5588 3.75002 15.5001 3.75002C20.7313 3.75002 28.2763 10.41 33.8488 19.945C38.7026 28.2475 40.9638 36.8738 39.6113 41.9225C39.1476 43.6588 38.2813 44.8988 37.0376 45.6075C36.2951 46.0313 35.4413 46.2463 34.4988 46.2463ZM15.5001 5.00002C14.7788 5.00002 14.1326 5.16002 13.5813 5.47377C12.6363 6.01377 11.9676 6.99752 11.5913 8.40127C10.3426 13.0688 12.6076 21.5175 17.2263 29.4238C22.5001 38.4463 29.7651 44.995 34.4988 44.9963C35.2213 44.9963 35.8676 44.8363 36.4188 44.5213C37.3613 43.9838 38.0301 43 38.4051 41.5988C39.6551 36.93 37.3901 28.4813 32.7701 20.5763C27.4951 11.5513 20.2338 5.00002 15.5001 5.00002Z" fill="url(#paint7_linear)"/>
</g>
<defs>
<linearGradient id="paint0_linear" x1="25" y1="13.75" x2="25" y2="36.125" gradientUnits="userSpaceOnUse">
<stop stop-color="#835AFD"/>
<stop offset="1" stop-color="#DA4FFE"/>
</linearGradient>
<linearGradient id="paint1_linear" x1="24.9997" y1="2.50377" x2="24.9997" y2="47.5" gradientUnits="userSpaceOnUse">
<stop stop-color="#835AFD"/>
<stop offset="1" stop-color="#DA4FFE"/>
</linearGradient>
<linearGradient id="paint2_linear" x1="24.9989" y1="2.49998" x2="24.9989" y2="47.4962" gradientUnits="userSpaceOnUse">
<stop stop-color="#835AFD"/>
<stop offset="1" stop-color="#DA4FFE"/>
</linearGradient>
<linearGradient id="paint3_linear" x1="25" y1="20.625" x2="25" y2="29.375" gradientUnits="userSpaceOnUse">
<stop stop-color="#835AFD"/>
<stop offset="1" stop-color="#DA4FFE"/>
</linearGradient>
<linearGradient id="paint4_linear" x1="25" y1="20" x2="25" y2="30" gradientUnits="userSpaceOnUse">
<stop stop-color="#835AFD"/>
<stop offset="1" stop-color="#DA4FFE"/>
</linearGradient>
<linearGradient id="paint5_linear" x1="25" y1="14.915" x2="25" y2="35.085" gradientUnits="userSpaceOnUse">
<stop stop-color="#835AFD"/>
<stop offset="1" stop-color="#DA4FFE"/>
</linearGradient>
<linearGradient id="paint6_linear" x1="24.9995" y1="3.75376" x2="24.9995" y2="46.25" gradientUnits="userSpaceOnUse">
<stop stop-color="#835AFD"/>
<stop offset="1" stop-color="#DA4FFE"/>
</linearGradient>
<linearGradient id="paint7_linear" x1="24.9985" y1="3.75002" x2="24.9985" y2="46.2463" gradientUnits="userSpaceOnUse">
<stop stop-color="#835AFD"/>
<stop offset="1" stop-color="#DA4FFE"/>
</linearGradient>
<clipPath id="clip0">
<rect width="50" height="50" fill="white"/>
</clipPath>
</defs>
</svg>
