<svg width="60" height="60" viewBox="0 0 60 60" fill="none" xmlns="http://www.w3.org/2000/svg">
<g clip-path="url(#clip0_537:47)">
<path d="M30 43.35C12.897 43.35 0 37.755 0 30C0 22.245 12.897 16.5 30 16.5C47.103 16.5 60 22.245 60 30C60 37.755 47.103 43.35 30 43.35ZM30 20.898C15.4065 20.898 4.3125 25.797 4.3125 30.0945C4.3125 34.392 15.4065 39.102 30 39.102C44.5935 39.102 55.6875 34.203 55.6875 29.9055C55.6875 25.608 44.5935 20.898 30 20.898Z" fill="#2849F7"/>
<path d="M18.6032 57C18.6017 57 18.6032 57 18.6032 57C17.2067 57 15.9317 56.676 14.8112 56.037C12.9812 54.9915 11.6687 53.145 11.0132 50.694C9.29419 44.271 12.0677 33.471 18.0827 23.178C25.1402 11.1105 34.5107 3.00452 41.3987 3.00452C42.7937 3.00452 44.0687 3.32852 45.1892 3.96752C47.0162 5.01002 48.3302 6.85502 48.9857 9.30452C50.7062 15.7275 47.9312 26.529 41.9132 36.822C34.8617 48.891 25.4927 57 18.6032 57ZM41.3987 7.50452C37.0667 7.50452 28.7852 13.794 21.9677 25.449C15.7832 36.033 13.9697 44.8125 15.3617 49.53C15.7382 50.8035 16.2692 51.687 17.0432 52.128C20.5847 54.15 30.2567 47.853 38.0297 34.5525C44.2172 23.967 46.2197 15.375 44.6387 10.47C44.2322 9.20853 43.7327 8.31752 42.9602 7.87802C42.5207 7.62602 42.0092 7.50452 41.3987 7.50452Z" fill="#2849F7"/>
<path d="M41.3987 56.9955C34.5032 56.994 25.1342 48.888 18.0827 36.822C12.0677 26.529 9.29419 15.7275 11.0132 9.30597C11.6687 6.85497 12.9812 5.00847 14.8097 3.96447C15.9317 3.32397 17.2067 2.99997 18.6002 2.99997C25.4927 2.99997 34.8602 11.109 41.9132 23.178C47.9297 33.4695 50.7032 44.271 48.9842 50.6955C48.3272 53.145 47.0147 54.99 45.1892 56.0325C44.0687 56.6715 42.7922 56.9955 41.3987 56.9955ZM18.6002 7.49997C17.9897 7.49997 17.4797 7.62297 17.0402 7.87197C16.2677 8.31297 15.7292 9.19347 15.3602 10.47C13.9682 15.282 15.7817 23.9685 21.9662 34.5525C28.7777 46.206 37.0607 52.4955 41.3972 52.4955C42.0092 52.4955 42.5192 52.3725 42.9587 52.122C43.7297 51.684 44.2832 50.808 44.6357 49.53C45.9362 44.811 44.2142 36.03 38.0282 25.4475C31.2167 13.791 22.9352 7.49997 18.6002 7.49997Z" fill="#2849F7"/>
<path d="M35.25 30C35.25 32.9025 32.9025 35.25 30 35.25C27.0975 35.25 24.75 32.9025 24.75 30C24.75 27.0975 27.0975 24.75 30 24.75C32.9025 24.75 35.25 27.0975 35.25 30Z" fill="#2849F7"/>
<path d="M30 36C26.691 36 24 33.309 24 30C24 26.691 26.691 24 30 24C33.309 24 36 26.691 36 30C36 33.309 33.309 36 30 36ZM30 25.5C27.519 25.5 25.5 27.519 25.5 30C25.5 32.481 27.519 34.5 30 34.5C32.481 34.5 34.5 32.481 34.5 30C34.5 27.519 32.481 25.5 30 25.5Z" fill="#2849F7"/>
<path d="M30 42.102C14.019 42.102 1.5 36.786 1.5 30C1.5 23.214 14.019 17.898 30 17.898C45.981 17.898 58.5 23.214 58.5 30C58.5 36.786 45.981 42.102 30 42.102ZM30 19.398C15.3645 19.398 3 24.2535 3 30C3 35.7465 15.3645 40.602 30 40.602C44.6355 40.602 57 35.748 57 30C57 24.252 44.6355 19.398 30 19.398Z" fill="#2849F7"/>
<path d="M18.6027 55.5C18.6012 55.5 18.6027 55.5 18.6027 55.5C17.4702 55.5 16.4457 55.242 15.5532 54.7335C14.0592 53.88 13.0197 52.3905 12.4602 50.3055C10.8387 44.25 13.5537 33.8985 19.3752 23.934C26.0682 12.495 35.1237 4.50451 41.3982 4.50451C42.5292 4.50451 43.5552 4.76251 44.4462 5.27101C45.9387 6.12301 46.9782 7.61101 47.5377 9.69301C49.1592 15.7485 46.4442 26.1 40.6197 36.066C33.9312 47.508 24.8787 55.5 18.6027 55.5ZM41.3982 6.00451C35.7222 6.00451 27.0057 13.863 20.6727 24.6915C15.1302 34.179 12.4122 44.316 13.9107 49.9185C14.3622 51.603 15.1647 52.7835 16.2987 53.4315C16.9602 53.808 17.7342 54 18.6012 54C24.2787 54 32.9937 46.14 39.3222 35.3085C44.8677 25.8195 47.5872 15.681 46.0857 10.0815C45.6357 8.40001 44.8332 7.21951 43.7007 6.57451C43.0392 6.19651 42.2652 6.00451 41.3982 6.00451Z" fill="#2849F7"/>
<path d="M41.3988 55.4955C35.1183 55.494 26.0628 47.505 19.3773 36.066C13.5543 26.1015 10.8408 15.75 12.4623 9.69453C13.0203 7.60953 14.0598 6.12003 15.5553 5.26653C16.4463 4.75803 17.4708 4.50003 18.6003 4.50003C24.8778 4.50003 33.9318 12.492 40.6188 23.934C46.4433 33.897 49.1568 44.2485 47.5338 50.307C46.9773 52.3905 45.9378 53.8785 44.4453 54.729C43.5543 55.2375 42.5298 55.4955 41.3988 55.4955ZM18.6003 6.00003C17.7348 6.00003 16.9593 6.19203 16.2978 6.56853C15.1638 7.21653 14.3613 8.39703 13.9098 10.0815C12.4113 15.6825 15.1293 25.821 20.6718 35.3085C27.0003 46.1355 35.7183 53.994 41.3988 53.9955C42.2658 53.9955 43.0413 53.8035 43.7028 53.4255C44.8338 52.7805 45.6363 51.6 46.0863 49.9185C47.5863 44.316 44.8683 34.1775 39.3243 24.6915C32.9943 13.8615 24.2808 6.00003 18.6003 6.00003Z" fill="#2849F7"/>
</g>
<defs>
<clipPath id="clip0_537:47">
<rect width="60" height="60" fill="white"/>
</clipPath>
</defs>
</svg>
