<svg width="50" height="50" viewBox="0 0 50 50" fill="none" xmlns="http://www.w3.org/2000/svg">
<g clip-path="url(#clip0)">
<path d="M43.0355 27.8229C41.2896 27.8313 39.7771 28.2521 38.5084 28.8771C38.0438 27.9521 37.5751 27.1375 37.4959 26.5313C37.4042 25.825 37.298 25.4021 37.4084 24.5604C37.5188 23.7188 38.0063 22.5271 38.0001 22.4375C37.9938 22.3479 37.8917 21.9188 36.8834 21.9125C35.8751 21.9063 35.0146 22.1063 34.9126 22.3729C34.8105 22.6396 34.6167 23.2375 34.4959 23.8625C34.3188 24.775 32.4855 28.0333 31.4438 29.7375C31.1021 29.0729 30.8126 28.4854 30.7521 28.0229C30.6605 27.3167 30.5542 26.8938 30.6646 26.0521C30.7751 25.2104 31.2626 24.0188 31.2563 23.9292C31.2501 23.8396 31.148 23.4104 30.1396 23.4042C29.1313 23.3979 28.2709 23.5979 28.1688 23.8646C28.0667 24.1313 27.9584 24.7521 27.7521 25.3542C27.5459 25.9563 25.1063 31.3896 24.4688 32.7979C24.1438 33.5146 23.8605 34.0917 23.6605 34.4854L23.6584 34.4833C23.6584 34.4833 23.6459 34.5104 23.6251 34.5542C23.4542 34.8896 23.3521 35.075 23.3521 35.075C23.3521 35.075 23.3542 35.0771 23.3542 35.0813C23.2188 35.3271 23.073 35.5563 23.0001 35.5563C22.9501 35.5563 22.848 34.9021 23.023 34.0021C23.3855 32.1167 24.2584 29.1771 24.248 29.0771C24.2438 29.025 24.4105 28.5125 23.6792 28.2458C22.9688 27.9854 22.7146 28.4188 22.6501 28.4208C22.5876 28.4229 22.5396 28.575 22.5396 28.575C22.5396 28.575 23.3313 25.2688 21.0292 25.2688C19.5896 25.2688 17.5959 26.8438 16.6126 28.2708C15.9917 28.6083 14.6646 29.3333 13.2584 30.1063C12.7167 30.4042 12.1667 30.7063 11.6417 30.9958C11.6063 30.9563 11.5709 30.9167 11.5334 30.8771C8.74172 27.8979 3.57922 25.7917 3.79797 21.7875C3.87714 20.3313 4.38339 16.4979 13.7146 11.8479C21.3584 8.0396 27.4792 9.08751 28.5355 11.4104C30.0459 14.7292 25.2646 20.8979 17.3271 21.7875C14.3021 22.1271 12.7105 20.9542 12.3146 20.5188C11.898 20.0583 11.8355 20.0375 11.6792 20.125C11.4251 20.2646 11.5855 20.6708 11.6792 20.9125C11.9167 21.5292 12.8896 22.6229 14.548 23.1667C16.0063 23.6458 19.5584 23.9083 23.8521 22.2479C28.6626 20.3875 32.4188 15.2125 31.3146 10.8854C30.1917 6.48543 22.898 5.0396 15.9917 7.49168C11.8876 8.94376 7.43964 11.2354 4.24172 14.2271C0.439637 17.7833 -0.168696 20.8813 0.0813037 22.175C0.968804 26.7708 7.30422 29.7646 9.84172 31.9833C9.71672 32.0521 9.60005 32.1167 9.49172 32.1771C8.21881 32.8063 3.38964 35.3333 2.1813 38.0042C0.81047 41.0333 2.40005 43.2063 3.45005 43.5C6.70839 44.4063 10.0521 42.775 11.848 40.0958C13.6438 37.4167 13.4251 33.9271 12.6001 32.3354C12.5896 32.3167 12.5792 32.2958 12.5688 32.2771C12.898 32.0833 13.2313 31.8854 13.5646 31.6896C14.2126 31.3104 14.848 30.9542 15.398 30.6542C15.0896 31.5 14.8626 32.5125 14.7459 33.9771C14.6105 35.6938 15.3167 37.9167 16.2376 38.7917C16.6438 39.1771 17.1313 39.1854 17.4417 39.1854C18.5146 39.1854 19.0042 38.2938 19.5438 37.2375C20.2042 35.9417 20.7917 34.4354 20.7917 34.4354C20.7917 34.4354 20.0563 38.5083 22.0626 38.5083C22.7938 38.5083 23.5292 37.5604 23.8563 37.0771C23.8563 37.0833 23.8584 37.0854 23.8584 37.0854C23.8584 37.0854 23.8771 37.0542 23.9146 36.9917C23.9896 36.875 24.0334 36.8021 24.0334 36.8021C24.0334 36.8021 24.0355 36.7938 24.0376 36.7813C24.3313 36.2708 24.9834 35.1083 25.9605 33.1896C27.223 30.7104 28.4334 27.6063 28.4334 27.6063C28.4334 27.6063 28.5459 28.3646 28.9146 29.6208C29.1313 30.3583 29.5938 31.175 29.9563 31.9583C29.6626 32.3646 29.4834 32.5979 29.4834 32.5979C29.4834 32.5979 29.4855 32.6021 29.4876 32.6104C29.2542 32.9208 28.9917 33.2563 28.7167 33.5833C27.7209 34.7708 26.5334 36.125 26.3751 36.5167C26.1876 36.9771 26.2313 37.3167 26.5938 37.5896C26.8584 37.7896 27.3292 37.8188 27.8209 37.7875C28.7167 37.7271 29.3459 37.5042 29.6584 37.3708C30.1438 37.2 30.7084 36.9292 31.2376 36.5396C32.2146 35.8208 32.8042 34.7917 32.748 33.4313C32.7167 32.6813 32.4771 31.9375 32.1751 31.2354C32.2646 31.1083 32.3521 30.9792 32.4417 30.8479C33.9834 28.5958 35.1792 26.1188 35.1792 26.1188C35.1792 26.1188 35.2917 26.8771 35.6605 28.1333C35.848 28.7688 36.2146 29.4625 36.548 30.1417C35.098 31.3188 34.2001 32.6875 33.8876 33.5854C33.3105 35.2458 33.7626 35.9979 34.6105 36.1688C34.9938 36.2458 35.5376 36.0708 35.9438 35.8979C36.4521 35.7292 37.0605 35.45 37.6313 35.0313C38.6084 34.3125 39.548 33.3063 39.4917 31.9438C39.4667 31.3229 39.298 30.7083 39.0688 30.1167C40.298 29.6042 41.8876 29.3208 43.9126 29.5563C48.2584 30.0646 49.1105 32.7771 48.948 33.9125C48.7855 35.0479 47.873 35.6729 47.5688 35.8604C47.2646 36.0479 47.1709 36.1146 47.1959 36.2542C47.2334 36.4583 47.373 36.45 47.6334 36.4063C47.9917 36.3458 49.9146 35.4833 49.998 33.3854C50.1021 30.7208 47.5521 27.7979 43.0355 27.8229ZM9.53755 39.1146C8.09797 40.6854 6.08755 41.2792 5.22505 40.7792C4.2938 40.2396 4.66255 37.9271 6.42922 36.2604C7.5063 35.2458 8.89589 34.3104 9.8188 33.7333C10.0292 33.6063 10.3376 33.4208 10.7126 33.1979C10.7751 33.1625 10.8105 33.1438 10.8105 33.1438L10.8084 33.1417C10.8813 33.0979 10.9542 33.0542 11.0313 33.0083C11.673 35.3792 11.048 37.4667 9.53755 39.1146ZM20.0251 31.9854C19.523 33.2083 18.4751 36.3354 17.8355 36.1667C17.2876 36.0229 16.9542 33.6458 17.7251 31.3063C18.1146 30.1292 18.9438 28.7208 19.4334 28.175C20.2188 27.2958 21.0834 27.0083 21.2938 27.3646C21.5626 27.8208 20.3396 31.2208 20.0251 31.9854ZM28.6876 36.1208C28.4751 36.2313 28.2792 36.3021 28.1896 36.2479C28.123 36.2083 28.2771 36.0625 28.2771 36.0625C28.2771 36.0625 29.3605 34.8958 29.7876 34.3667C30.0355 34.0583 30.323 33.6917 30.6376 33.2813C30.6396 33.3229 30.6417 33.3625 30.6417 33.4021C30.6396 34.7979 29.2896 35.7417 28.6876 36.1208ZM35.3626 34.5979C35.2042 34.4854 35.2313 34.1208 35.7521 32.9854C35.9563 32.5396 36.423 31.7896 37.2355 31.0708C37.3292 31.3667 37.3876 31.6479 37.3855 31.9125C37.3751 33.6708 36.1209 34.3271 35.3626 34.5979Z" fill="url(#paint0_linear)"/>
</g>
<defs>
<linearGradient id="paint0_linear" x1="25.0167" y1="6.30359" x2="25.0167" y2="43.752" gradientUnits="userSpaceOnUse">
<stop stop-color="#835AFD"/>
<stop offset="1" stop-color="#DA4FFE"/>
</linearGradient>
<clipPath id="clip0">
<rect width="50" height="50" fill="white"/>
</clipPath>
</defs>
</svg>
