<svg width="60" height="60" viewBox="0 0 60 60" fill="none" xmlns="http://www.w3.org/2000/svg">
<g clip-path="url(#clip0_537:45)">
<path d="M51.6428 33.3875C49.5478 33.3975 47.7328 33.9025 46.2103 34.6525C45.6528 33.5425 45.0903 32.565 44.9953 31.8375C44.8853 30.99 44.7578 30.4825 44.8903 29.4725C45.0228 28.4625 45.6078 27.0325 45.6003 26.925C45.5928 26.8175 45.4703 26.3025 44.2603 26.295C43.0503 26.2875 42.0178 26.5275 41.8953 26.8475C41.7728 27.1675 41.5403 27.885 41.3953 28.635C41.1828 29.73 38.9828 33.64 37.7328 35.685C37.3228 34.8875 36.9753 34.1825 36.9028 33.6275C36.7928 32.78 36.6653 32.2725 36.7978 31.2625C36.9303 30.2525 37.5153 28.8225 37.5078 28.715C37.5003 28.6075 37.3778 28.0925 36.1678 28.085C34.9578 28.0775 33.9253 28.3175 33.8028 28.6375C33.6803 28.9575 33.5503 29.7025 33.3028 30.425C33.0553 31.1475 30.1278 37.6675 29.3628 39.3575C28.9728 40.2175 28.6328 40.91 28.3928 41.3825L28.3903 41.38C28.3903 41.38 28.3753 41.4125 28.3503 41.465C28.1453 41.8675 28.0228 42.09 28.0228 42.09C28.0228 42.09 28.0253 42.0925 28.0253 42.0975C27.8628 42.3925 27.6878 42.6675 27.6003 42.6675C27.5403 42.6675 27.4178 41.8825 27.6278 40.8025C28.0628 38.54 29.1103 35.0125 29.0978 34.8925C29.0928 34.83 29.2928 34.215 28.4153 33.895C27.5628 33.5825 27.2578 34.1025 27.1803 34.105C27.1053 34.1075 27.0478 34.29 27.0478 34.29C27.0478 34.29 27.9978 30.3225 25.2353 30.3225C23.5078 30.3225 21.1153 32.2125 19.9353 33.925C19.1903 34.33 17.5978 35.2 15.9103 36.1275C15.2603 36.485 14.6003 36.8475 13.9703 37.195C13.9278 37.1475 13.8853 37.1 13.8403 37.0525C10.4903 33.4775 4.29531 30.95 4.55781 26.145C4.65281 24.3975 5.26031 19.7975 16.4578 14.2175C25.6303 9.64751 32.9753 10.905 34.2428 13.6925C36.0553 17.675 30.3178 25.0775 20.7928 26.145C17.1628 26.5525 15.2528 25.145 14.7778 24.6225C14.2778 24.07 14.2028 24.045 14.0153 24.15C13.7103 24.3175 13.9028 24.805 14.0153 25.095C14.3003 25.835 15.4678 27.1475 17.4578 27.8C19.2078 28.375 23.4703 28.69 28.6228 26.6975C34.3953 24.465 38.9028 18.255 37.5778 13.0625C36.2303 7.78251 27.4778 6.04751 19.1903 8.99001C14.2653 10.7325 8.92781 13.4825 5.09031 17.0725C0.527809 21.34 -0.202192 25.0575 0.0978085 26.61C1.16281 32.125 8.76531 35.7175 11.8103 38.38C11.6603 38.4625 11.5203 38.54 11.3903 38.6125C9.86281 39.3675 4.06781 42.4 2.61781 45.605C0.972809 49.24 2.88031 51.8475 4.14031 52.2C8.05031 53.2875 12.0628 51.33 14.2178 48.115C16.3728 44.9 16.1103 40.7125 15.1203 38.8025C15.1078 38.78 15.0953 38.755 15.0828 38.7325C15.4778 38.5 15.8778 38.2625 16.2778 38.0275C17.0553 37.5725 17.8178 37.145 18.4778 36.785C18.1078 37.8 17.8353 39.015 17.6953 40.7725C17.5328 42.8325 18.3803 45.5 19.4853 46.55C19.9728 47.0125 20.5578 47.0225 20.9303 47.0225C22.2178 47.0225 22.8053 45.9525 23.4528 44.685C24.2453 43.13 24.9503 41.3225 24.9503 41.3225C24.9503 41.3225 24.0678 46.21 26.4753 46.21C27.3528 46.21 28.2353 45.0725 28.6278 44.4925C28.6278 44.5 28.6303 44.5025 28.6303 44.5025C28.6303 44.5025 28.6528 44.465 28.6978 44.39C28.7878 44.25 28.8403 44.1625 28.8403 44.1625C28.8403 44.1625 28.8428 44.1525 28.8453 44.1375C29.1978 43.525 29.9803 42.13 31.1528 39.8275C32.6678 36.8525 34.1203 33.1275 34.1203 33.1275C34.1203 33.1275 34.2553 34.0375 34.6978 35.545C34.9578 36.43 35.5128 37.41 35.9478 38.35C35.5953 38.8375 35.3803 39.1175 35.3803 39.1175C35.3803 39.1175 35.3828 39.1225 35.3853 39.1325C35.1053 39.505 34.7903 39.9075 34.4603 40.3C33.2653 41.725 31.8403 43.35 31.6503 43.82C31.4253 44.3725 31.4778 44.78 31.9128 45.1075C32.2303 45.3475 32.7953 45.3825 33.3853 45.345C34.4603 45.2725 35.2153 45.005 35.5903 44.845C36.1728 44.64 36.8503 44.315 37.4853 43.8475C38.6578 42.985 39.3653 41.75 39.2978 40.1175C39.2603 39.2175 38.9728 38.325 38.6103 37.4825C38.7178 37.33 38.8228 37.175 38.9303 37.0175C40.7803 34.315 42.2153 31.3425 42.2153 31.3425C42.2153 31.3425 42.3503 32.2525 42.7928 33.76C43.0178 34.5225 43.4578 35.355 43.8578 36.17C42.1178 37.5825 41.0403 39.225 40.6653 40.3025C39.9728 42.295 40.5153 43.1975 41.5328 43.4025C41.9928 43.495 42.6453 43.285 43.1328 43.0775C43.7428 42.875 44.4728 42.54 45.1578 42.0375C46.3303 41.175 47.4578 39.9675 47.3903 38.3325C47.3603 37.5875 47.1578 36.85 46.8828 36.14C48.3578 35.525 50.2653 35.185 52.6953 35.4675C57.9103 36.0775 58.9328 39.3325 58.7378 40.695C58.5428 42.0575 57.4478 42.8075 57.0828 43.0325C56.7178 43.2575 56.6053 43.3375 56.6353 43.505C56.6803 43.75 56.8478 43.74 57.1603 43.6875C57.5903 43.615 59.8978 42.58 59.9978 40.0625C60.1228 36.865 57.0628 33.3575 51.6428 33.3875ZM11.4453 46.9375C9.71781 48.8225 7.30531 49.535 6.27031 48.935C5.15281 48.2875 5.59531 45.5125 7.71531 43.5125C9.00781 42.295 10.6753 41.1725 11.7828 40.48C12.0353 40.3275 12.4053 40.105 12.8553 39.8375C12.9303 39.795 12.9728 39.7725 12.9728 39.7725L12.9703 39.77C13.0578 39.7175 13.1453 39.665 13.2378 39.61C14.0078 42.455 13.2578 44.96 11.4453 46.9375ZM24.0303 38.3825C23.4278 39.85 22.1703 43.6025 21.4028 43.4C20.7453 43.2275 20.3453 40.375 21.2703 37.5675C21.7378 36.155 22.7328 34.465 23.3203 33.81C24.2628 32.755 25.3003 32.41 25.5528 32.8375C25.8753 33.385 24.4078 37.465 24.0303 38.3825ZM34.4253 43.345C34.1703 43.4775 33.9353 43.5625 33.8278 43.4975C33.7478 43.45 33.9328 43.275 33.9328 43.275C33.9328 43.275 35.2328 41.875 35.7453 41.24C36.0428 40.87 36.3878 40.43 36.7653 39.9375C36.7678 39.9875 36.7703 40.035 36.7703 40.0825C36.7678 41.7575 35.1478 42.89 34.4253 43.345ZM42.4353 41.5175C42.2453 41.3825 42.2778 40.945 42.9028 39.5825C43.1478 39.0475 43.7078 38.1475 44.6828 37.285C44.7953 37.64 44.8653 37.9775 44.8628 38.295C44.8503 40.405 43.3453 41.1925 42.4353 41.5175Z" fill="#2849F7"/>
</g>
<defs>
<clipPath id="clip0_537:45">
<rect width="60" height="60" fill="white"/>
</clipPath>
</defs>
</svg>
