<svg width="60" height="60" viewBox="0 0 60 60" fill="none" xmlns="http://www.w3.org/2000/svg">
<path d="M47.7373 19.5563V40.3125L30.0842 50.775L29.9248 50.9203V58.6875L30.0842 58.8375L54.9279 44.475V15.525L54.6936 15.4688L47.6623 19.3875L47.6998 19.5563" fill="#2849F7"/>
<path d="M12.3746 40.5L30.084 50.775V58.8375L5.05273 44.4187V15.5812L5.31055 15.5437L12.2996 19.6078L12.3746 19.8422V40.5Z" fill="#2849F7"/>
<path d="M12.3746 19.8375L5.05273 15.5813L30.0277 1.16253L54.9465 15.525L47.7371 19.5563L30.0277 9.45003L12.3746 19.8375Z" fill="#2849F7"/>
<path d="M29.7791 38.1235L29.5869 37.9266V30.1266L29.7791 30.0282L29.826 29.836L36.515 25.936L36.7213 25.9829V34.0219L29.7838 38.1282" fill="#2849F7"/>
<path d="M22.7246 34.2704V25.9219H22.9168L29.7184 29.8829L29.7746 30.0375V38.1235L22.7246 34.2704Z" fill="#2849F7"/>
<path d="M29.6668 21.8156L22.7246 25.9218L29.7793 30.0281L36.7168 25.9781L29.6668 21.8156Z" fill="#2849F7"/>
<path d="M21.1453 43.2141L20.9531 43.0173V35.2173L21.1453 35.1188L21.1922 34.9266L27.8812 31.0266L28.0875 31.0735V39.1079L21.15 43.2141" fill="#2849F7"/>
<path d="M14.0898 39.375V31.0125H14.282L21.093 34.9641L21.1492 35.1188V43.2141L14.0898 39.375Z" fill="#2849F7"/>
<path d="M21.0273 26.9062L14.0898 31.0125L21.1445 35.1187L28.082 31.0687L21.0273 26.9062Z" fill="#2849F7"/>
<path d="M39.032 43.4063L38.8398 43.2094V35.4094L39.032 35.311L39.0789 35.1188L45.768 31.2188L45.9742 31.2656V39.3L39.032 43.4063Z" fill="#2849F7"/>
<path d="M31.9775 39.5532V31.2048H32.1697L38.976 35.1563L39.0322 35.311V43.4063L31.9775 39.5532Z" fill="#2849F7"/>
<path d="M38.9063 27.0985L31.9688 31.2048L39.0234 35.311L45.9609 31.261L38.9063 27.0985Z" fill="#2849F7"/>
<path d="M30.3982 48.4969L30.2061 48.3V40.5L30.3982 40.4016L30.4451 40.2094L37.1342 36.3094L37.3404 36.3563V44.3907L30.4029 48.4969" fill="#2849F7"/>
<path d="M23.3438 44.6391V36.2954H23.5359L30.3375 40.2563L30.3938 40.411V48.5063L23.3438 44.6391Z" fill="#2849F7"/>
<path d="M30.2812 32.1892L23.3438 36.2954L30.3984 40.4017L37.3359 36.3517L30.2812 32.1892Z" fill="#2849F7"/>
<path d="M29.7791 27.0609L29.5869 26.8641V19.0641L29.7791 18.9656L29.826 18.7734L36.515 14.8688L36.7213 14.9156V22.9688L29.7838 27.075" fill="#2849F7"/>
<path d="M22.7246 23.2032V14.8594H22.9168L29.7184 18.8203L29.7746 18.975V27.061L22.7246 23.2032Z" fill="#2849F7"/>
<path d="M29.6668 10.7532L22.7246 14.8595L29.7793 18.9657L36.7168 14.9157L29.6668 10.7532Z" fill="#2849F7"/>
<path d="M21.1453 32.1516L20.9531 31.9547V24.1548L21.1453 24.0563L21.1922 23.8641L27.8812 19.9641L28.0875 20.011V28.0454L21.15 32.1516" fill="#2849F7"/>
<path d="M14.0898 28.2938V19.9454H14.282L21.093 23.9063L21.1492 24.061V32.1516L14.0898 28.2938Z" fill="#2849F7"/>
<path d="M21.0273 15.8438L14.0898 19.95L21.1445 24.0563L28.082 20.0063L21.0273 15.8438Z" fill="#2849F7"/>
<path d="M39.032 32.3438L38.8398 32.1469V24.3469L39.032 24.2484L39.0789 24.0562L45.768 20.1562L45.9742 20.2031V28.2375L39.032 32.3438Z" fill="#2849F7"/>
<path d="M31.9775 28.4859V20.1562H32.1697L38.9713 24.1172L39.0275 24.2719V32.3438L31.9775 28.4859Z" fill="#2849F7"/>
<path d="M38.9057 16.036L31.9775 20.1563L39.0322 24.2626L45.9697 20.2126L38.9057 16.036Z" fill="#2849F7"/>
<path d="M30.3982 37.4297L30.2061 37.2328V29.4328L30.3982 29.3344L30.4451 29.1422L37.1342 25.2422L37.3404 25.2891V33.3235L30.4029 37.4297" fill="#2849F7"/>
<path d="M23.3438 33.5766V25.2282H23.5359L30.3375 29.1891L30.3938 29.3438V37.4298L23.3438 33.5766Z" fill="#2849F7"/>
<path d="M30.2812 21.1219L23.3438 25.2282L30.3984 29.3344L37.3359 25.2844L30.2812 21.1219Z" fill="#2849F7"/>
</svg>
