<svg width="50" height="50" viewBox="0 0 50 50" fill="none" xmlns="http://www.w3.org/2000/svg">
<path d="M28.2032 46.25C28.2688 46.1016 28.4344 45.9984 28.5547 45.8734C30.3907 43.9484 32.2422 42.0406 34.0532 40.0922C34.6199 39.5688 35.0578 38.9214 35.3326 38.2007C35.6075 37.4799 35.7118 36.7053 35.6376 35.9375C35.5807 35.6087 35.5061 35.2832 35.4141 34.9625C34.9204 35.4312 34.461 35.8578 33.9985 36.2875C33.2797 36.9562 32.5641 37.6281 31.8391 38.2891C31.4116 38.7249 30.8619 39.0209 30.2627 39.1378C29.6634 39.2547 29.0428 39.187 28.4829 38.9437C27.916 38.7355 27.4228 38.3653 27.0644 37.8792C26.7061 37.3931 26.4985 36.8125 26.4672 36.2094C26.4504 36.1318 26.428 36.0555 26.4 35.9812C25.8485 36.45 25.3204 36.8812 24.7969 37.325L13.9172 46.5437C13.8422 46.6078 13.761 46.6875 13.6907 46.75H28.1954L28.1735 46.7359C28.0954 46.6812 28.136 46.3937 28.2032 46.25Z" fill="#835AFD"/>
<path d="M13.0265 46.25C13.1556 46.082 13.3113 45.9363 13.4875 45.8188L28.5437 33.0453C29.5708 32.1734 30.5932 31.2969 31.6109 30.4156C31.7367 30.3279 31.8352 30.2067 31.8953 30.0656C32.1387 29.0048 32.1732 27.9068 31.9968 26.8328C31.8406 26.9422 31.7562 26.9891 31.6843 27.0656C30.4515 28.1687 29.225 29.2812 27.9859 30.3781C27.5754 30.7912 27.0446 31.0636 26.4696 31.1559C25.8946 31.2483 25.3051 31.156 24.7859 30.8922C24.2562 30.6421 23.8129 30.2401 23.5124 29.7373C23.2119 29.2345 23.0678 28.6537 23.0984 28.0688C23.0984 27.9359 23.0984 27.8047 23.0984 27.5625C22.8718 27.7281 22.7062 27.8391 22.5515 27.9641C16.5255 32.7891 10.5005 37.6104 4.47654 42.4281C4.20466 42.6453 3.87966 43.1297 3.52341 42.6594C3.16716 42.1891 3.70935 41.9953 3.98279 41.7766C10.4047 36.6234 16.8297 31.475 23.2578 26.3312C24.3047 25.4922 24.3734 25.1406 23.6922 23.8078L23.2859 24.1891C22.1718 25.225 21.0453 26.2469 19.9484 27.3C19.4985 27.734 18.935 28.0319 18.3229 28.1593C17.7109 28.2866 17.0753 28.2383 16.4896 28.0199C15.9039 27.8014 15.3919 27.4218 15.0127 26.9247C14.6336 26.4277 14.4027 25.8336 14.3468 25.2109C14.139 25.3672 13.9593 25.4812 13.789 25.6141L4.25779 33.0016C4.0934 33.1628 3.90593 33.2987 3.70154 33.4047C3.54728 33.4513 3.38163 33.443 3.23279 33.3813V46.7578H13.0078C12.9714 46.6775 12.9542 46.5898 12.9575 46.5017C12.9607 46.4136 12.9844 46.3274 13.0265 46.25Z" fill="#835AFD"/>
<path d="M39.4329 3.78594C39.1673 4.65625 38.9095 5.52813 38.6767 6.40782C38.4616 7.02947 38.4866 7.70904 38.7468 8.31321C39.007 8.91737 39.4835 9.40251 40.0829 9.67344C41.9164 10.6372 43.9824 11.0701 46.0485 10.9234V3.93438C46.0256 3.78114 46.0341 3.62484 46.0735 3.475C46.1173 3.39025 46.1725 3.31191 46.2376 3.24219H39.4267C39.5313 3.36407 39.4954 3.57813 39.4329 3.78594Z" fill="#DA4FFE"/>
<path d="M25.7531 18.8C25.7207 19.5801 25.4478 20.3311 24.9718 20.95C23.2703 23.1465 21.3162 25.1352 19.15 26.875C18.8006 27.1984 18.3578 27.4028 17.8851 27.4589C17.4124 27.5151 16.9341 27.4201 16.5187 27.1875C16.1053 27.0109 15.7567 26.7106 15.5208 26.3278C15.285 25.9451 15.1734 25.4987 15.2015 25.05C15.2516 24.4989 15.4804 23.9793 15.8531 23.5703C18.2755 21.2605 20.9 19.1725 23.6953 17.3313C23.8783 17.1877 24.1019 17.1053 24.3344 17.0958C24.5668 17.0863 24.7964 17.1501 24.9906 17.2781C25.2458 17.4366 25.4522 17.6627 25.5868 17.9314C25.7214 18.2 25.7789 18.5007 25.7531 18.8Z" fill="#DA4FFE"/>
<path d="M23.8812 28.2703C23.8449 27.9249 23.8892 27.5759 24.0107 27.2505C24.1322 26.9252 24.3274 26.6324 24.5812 26.3953C26.953 24.2077 29.4978 22.2153 32.1905 20.4375C32.2718 20.3859 32.3468 20.3344 32.4359 20.2813C32.6711 20.1114 32.9561 20.0247 33.246 20.0346C33.5359 20.0445 33.8143 20.1505 34.0374 20.3359C34.2533 20.5188 34.406 20.765 34.4739 21.0396C34.5418 21.3143 34.5213 21.6033 34.4155 21.8656C34.0749 23.0003 33.4461 24.0274 32.5905 24.8469C30.864 26.5656 29.0718 28.2281 27.2781 29.8781C27.0064 30.1575 26.6496 30.3385 26.2638 30.3928C25.8779 30.4472 25.485 30.3716 25.1468 30.1781C24.7914 29.9935 24.4888 29.7215 24.2674 29.3878C24.0461 29.054 23.9131 28.6695 23.8812 28.2703Z" fill="#DA4FFE"/>
<path d="M35.1562 29.3031C34.7187 29.7719 34.2687 30.2188 33.8484 30.6984C33.722 30.8838 33.6172 31.0831 33.5359 31.2922C33.7672 31.3609 34.0375 31.5422 34.225 31.4781C35.1797 31.1578 36.1109 30.7734 37.1594 30.3688C36.9312 30.8938 36.7594 31.3781 36.5172 31.8219C35.5194 33.4987 34.27 35.0122 32.8125 36.3094C32.2583 36.8438 31.6828 37.3547 31.0859 37.8422C30.7698 38.1045 30.3897 38.2781 29.9845 38.3453C29.5793 38.4126 29.1635 38.3709 28.7797 38.2247C28.3958 38.0785 28.0577 37.8329 27.7999 37.5131C27.5421 37.1933 27.3739 36.8108 27.3125 36.4047C27.2874 36.1789 27.3074 35.9504 27.3712 35.7323C27.4351 35.5143 27.5415 35.311 27.6844 35.1344C29.8106 32.8254 32.2407 30.8159 34.9078 29.1609C34.9402 29.1484 34.9746 29.1415 35.0094 29.1406L35.1562 29.3031Z" fill="#DA4FFE"/>
<path d="M38.7405 23.0797L41.4139 11.2047L43.2889 11.6438L42.3217 14.5828C41.4186 17.3172 40.5045 20.0516 39.6233 22.7891C39.4514 23.2953 39.2264 23.3891 38.7405 23.0797Z" fill="#835AFD"/>
<path d="M35.7219 30.0641C36.0047 28.9844 36.286 27.9859 36.5235 26.9766C36.755 25.9977 37.1952 25.0804 37.8141 24.2875C38.1938 23.7891 38.6204 23.9875 39.0563 24.0953C39.4594 24.1937 39.561 24.4891 39.5782 24.8766C39.6417 25.9481 39.3154 27.0065 38.6594 27.8562C37.8785 28.8244 36.869 29.5831 35.7219 30.0641Z" fill="#DA4FFE"/>
<path d="M46.8641 4.52187C46.8874 4.17387 46.8785 3.82447 46.8375 3.47812C46.8053 3.38137 46.7415 3.29827 46.6563 3.24218C46.5869 3.18578 46.5058 3.14572 46.4188 3.12499C46.3688 3.11562 46.2985 3.16718 46.2313 3.24061C46.1662 3.31033 46.111 3.38867 46.0672 3.47343C46.0278 3.62327 46.0193 3.77957 46.0422 3.9328V10.9203C43.9761 11.067 41.9101 10.6341 40.0766 9.6703C39.4772 9.39937 39.0007 8.91423 38.7405 8.31007C38.4803 7.70591 38.4553 7.02633 38.6704 6.40468C38.9032 5.52499 39.161 4.65312 39.4266 3.7828C39.4891 3.57499 39.525 3.36093 39.4266 3.23905C39.3718 3.17972 39.2963 3.14389 39.2157 3.13905C39.1124 3.14017 39.0125 3.17532 38.9313 3.23905C38.8144 3.30894 38.7213 3.41239 38.6641 3.53593C38.3516 4.47343 38.0766 5.4203 37.8375 6.37655C37.7473 6.75338 37.723 7.14299 37.7657 7.52811C37.8261 8.22495 38.0853 8.8898 38.5124 9.44373C38.9394 9.99766 39.5165 10.4174 40.175 10.6531C40.4704 10.7766 40.6438 10.8984 40.561 11.2875C40.4469 11.7812 40.336 12.275 40.2235 12.7703C39.4579 16.1266 38.6964 19.4844 37.9391 22.8437C37.9178 22.9935 37.8519 23.1334 37.75 23.2453C37.2509 23.642 36.8315 24.1298 36.5141 24.6828C36.1096 25.4125 35.8297 26.2047 35.686 27.0266C35.6584 27.2887 35.5637 27.5393 35.4109 27.7542C35.2582 27.9691 35.0526 28.1409 34.8141 28.2531C34.1625 28.5828 33.5641 29.0094 32.8407 29.4531C32.8889 28.5831 32.8795 27.7109 32.8125 26.8422C32.7575 26.5749 32.7692 26.2982 32.8466 26.0366C32.924 25.775 33.0647 25.5364 33.2563 25.3422C34.2093 24.3981 34.8885 23.2134 35.2219 21.914C35.3215 21.6129 35.3488 21.2925 35.3016 20.9788C35.2544 20.6651 35.1341 20.3669 34.9504 20.1083C34.7666 19.8497 34.5246 19.638 34.2439 19.4902C33.9632 19.3425 33.6516 19.2629 33.3344 19.2578C32.8209 19.2521 32.3167 19.3954 31.8829 19.6703C30.3875 20.6797 28.9329 21.7516 27.4891 22.8359C26.6344 23.4797 25.8297 24.1922 25.0016 24.8672C24.9659 24.8288 24.935 24.7863 24.9094 24.7406C24.8936 24.6256 24.8626 24.5131 24.8172 24.4062C24.125 23.3375 24.6047 22.5609 25.3563 21.7625C26.1393 20.9417 26.5719 19.8483 26.5625 18.7141C26.5868 18.1361 26.4058 17.5682 26.0516 17.1109C25.8629 16.8788 25.6304 16.6861 25.3672 16.5437C24.9935 16.3392 24.5661 16.2538 24.1424 16.299C23.7188 16.3443 23.319 16.518 22.9969 16.7969L22.561 17.1094C21.5657 17.8219 20.5579 18.5156 19.6 19.2781C18.2016 20.3906 16.836 21.55 15.4969 22.7375C14.8719 23.2891 14.4157 24.0422 13.7672 24.5547C10.386 27.225 6.96879 29.8469 3.5641 32.4859C3.44703 32.5558 3.33939 32.6403 3.24379 32.7375C3.23395 32.7517 3.22557 32.7669 3.21879 32.7828C3.14692 32.95 3.08598 33.2265 3.17035 33.3281C3.19104 33.3502 3.21603 33.3677 3.24379 33.3797C3.39263 33.4415 3.55828 33.4497 3.71254 33.4031C3.91693 33.2971 4.1044 33.1612 4.26879 33L13.8 25.6125C13.9704 25.4797 14.15 25.3594 14.3579 25.2094C14.4137 25.832 14.6446 26.4261 15.0237 26.9232C15.4029 27.4202 15.9149 27.7999 16.5006 28.0183C17.0863 28.2368 17.7219 28.2851 18.3339 28.1577C18.946 28.0303 19.5095 27.7324 19.9594 27.2984C21.0532 26.2453 22.1829 25.2234 23.2969 24.1875L23.7032 23.8062C24.3844 25.1391 24.3157 25.4906 23.2688 26.3297C16.8355 31.4776 10.4068 36.6265 3.98285 41.7766C3.70942 41.9953 3.16879 42.1937 3.52348 42.6594C3.87817 43.125 4.20473 42.6453 4.4766 42.4281C10.5037 37.6146 16.5266 32.7948 22.5454 27.9687C22.7016 27.8437 22.8657 27.7328 23.0922 27.5672C23.0922 27.8094 23.0922 27.9406 23.0922 28.0734C23.0616 28.6584 23.2057 29.2392 23.5062 29.742C23.8067 30.2448 24.25 30.6468 24.7797 30.8969C25.2989 31.1606 25.8884 31.253 26.4634 31.1606C27.0384 31.0682 27.5693 30.7959 27.9797 30.3828C29.2188 29.289 30.4454 28.1734 31.6782 27.0703C31.7563 27 31.8469 26.9469 31.9907 26.8375C32.167 27.9115 32.1325 29.0095 31.8891 30.0703C31.829 30.2113 31.7305 30.3326 31.6047 30.4203C30.586 31.3005 29.5636 32.1771 28.5375 33.05L13.4875 45.825C13.3113 45.9426 13.1556 46.0882 13.0266 46.2562C12.9854 46.3329 12.9623 46.4179 12.9591 46.5048C12.9558 46.5918 12.9725 46.6783 13.0079 46.7578C13.0785 46.8107 13.1601 46.847 13.2466 46.8641C13.3332 46.8811 13.4225 46.8784 13.5079 46.8562C13.5752 46.8367 13.6372 46.8019 13.6891 46.7547C13.7672 46.6922 13.8454 46.6125 13.9157 46.5484L24.7954 37.3297C25.3188 36.8859 25.8469 36.4484 26.3985 35.9859C26.4264 36.0602 26.4489 36.1365 26.4657 36.2141C26.4969 36.8172 26.7045 37.3978 27.0629 37.8839C27.4212 38.37 27.9144 38.7402 28.4813 38.9484C29.0413 39.1917 29.6619 39.2593 30.2611 39.1424C30.8604 39.0256 31.41 38.7296 31.8375 38.2937C32.5625 37.6328 33.2782 36.9609 33.9969 36.2922C34.4657 35.8625 34.9188 35.4312 35.4125 34.9672C35.5045 35.2879 35.5791 35.6134 35.636 35.9422C35.7078 36.7075 35.6022 37.479 35.3274 38.1968C35.0527 38.9147 34.6161 39.5595 34.0516 40.0812C32.2407 42.0312 30.3891 43.939 28.5532 45.8625C28.4329 45.9875 28.2672 46.0906 28.2016 46.239C28.136 46.3875 28.0938 46.6781 28.1719 46.7406L28.1938 46.7547C28.3576 46.8344 28.5419 46.8622 28.7219 46.8344C28.7724 46.824 28.8173 46.7957 28.8485 46.7547C28.8922 46.7094 28.9344 46.6531 28.9766 46.6109C30.4641 45.0734 31.9594 43.5437 33.436 41.9953C34.032 41.3914 34.5923 40.7534 35.1141 40.0844C35.7945 39.3311 36.2457 38.3992 36.4145 37.3983C36.5834 36.3974 36.4629 35.3691 36.0672 34.4344C36.0247 34.2259 36.0663 34.0092 36.1829 33.8312C36.2844 33.6562 36.3969 33.4859 36.5125 33.3172C36.8825 32.8368 37.1907 32.3119 37.4297 31.7547C37.8917 30.3872 38.6009 29.1161 39.5219 28.0047C39.9453 27.4678 40.2367 26.839 40.3724 26.1689C40.5081 25.4988 40.4844 24.8061 40.3032 24.1469C40.2391 23.8962 40.2391 23.6335 40.3032 23.3828C41.0938 20.9344 41.9079 18.4937 42.7141 16.0516C43.0756 14.9578 43.4349 13.8672 43.7922 12.7797L44.125 11.7687C44.8344 11.7687 45.5032 11.7547 46.1688 11.7687C46.7219 11.7844 46.8907 11.525 46.8844 10.9875C46.8516 8.83124 46.8641 6.67655 46.8641 4.52187ZM19.15 26.875C18.8007 27.1984 18.3579 27.4028 17.8852 27.4589C17.4125 27.5151 16.9342 27.42 16.5188 27.1875C16.1054 27.0109 15.7568 26.7105 15.5209 26.3278C15.2851 25.9451 15.1735 25.4987 15.2016 25.05C15.2516 24.4989 15.4805 23.9793 15.8532 23.5703C18.2756 21.2605 20.9001 19.1724 23.6954 17.3312C23.8479 17.2234 24.0215 17.1489 24.2047 17.1125C24.3277 17.0898 24.4537 17.0898 24.5766 17.1125C24.7238 17.1412 24.8643 17.1974 24.9907 17.2781C25.2462 17.4367 25.4527 17.6631 25.5873 17.932C25.7219 18.201 25.7793 18.5019 25.7532 18.8016C25.7208 19.5816 25.4479 20.3326 24.9719 20.9516C23.2703 23.1475 21.3162 25.1356 19.15 26.875ZM27.275 29.889C27.0034 30.1684 26.6466 30.3495 26.2608 30.4038C25.8749 30.4581 25.482 30.3825 25.1438 30.189C24.7878 30.004 24.4848 29.7313 24.2634 29.3967C24.0419 29.0621 23.9094 28.6766 23.8782 28.2766C23.8419 27.9312 23.8862 27.5821 24.0077 27.2567C24.1292 26.9314 24.3244 26.6387 24.5782 26.4016C26.95 24.2139 29.4948 22.2215 32.1875 20.4437C32.2688 20.3922 32.3438 20.3406 32.4329 20.2875C32.6681 20.1177 32.9531 20.0309 33.243 20.0408C33.5329 20.0507 33.8113 20.1567 34.0344 20.3422C34.2503 20.525 34.403 20.7712 34.4709 21.0459C34.5388 21.3205 34.5183 21.6095 34.4125 21.8719C34.0719 23.0065 33.4431 24.0336 32.5875 24.8531C30.8641 26.575 29.0719 28.2328 27.2782 29.8828L27.275 29.889ZM36.511 31.8281C35.5146 33.5022 34.2673 35.0136 32.8125 36.3094C32.2584 36.8437 31.6829 37.3547 31.086 37.8422C30.7699 38.1045 30.3898 38.2781 29.9846 38.3453C29.5794 38.4125 29.1636 38.3709 28.7797 38.2247C28.3959 38.0784 28.0578 37.8329 27.8 37.5131C27.5422 37.1933 27.374 36.8108 27.3125 36.4047C27.2875 36.1789 27.3075 35.9503 27.3713 35.7323C27.4351 35.5142 27.5415 35.311 27.6844 35.1344C29.8107 32.8254 32.2407 30.8159 34.9079 29.1609C34.9403 29.1483 34.9746 29.1415 35.0094 29.1406L35.1657 29.2969C34.7282 29.7656 34.2782 30.2125 33.8579 30.6922C33.7315 30.8776 33.6266 31.0768 33.5454 31.2859C33.7766 31.3547 34.0469 31.5359 34.2344 31.4719C34.9891 31.2187 35.7313 30.925 36.5266 30.6125L37.1688 30.3625C36.9282 30.8937 36.7563 31.3781 36.5141 31.8219L36.511 31.8281ZM38.6563 27.8672C38.0735 28.6092 37.3429 29.2221 36.511 29.6672C36.2537 29.8109 35.9896 29.9453 35.7188 30.0703C35.9969 29.0062 36.275 28.0203 36.511 27.0234L36.5204 26.9828C36.7518 26.0039 37.1921 25.0866 37.811 24.2937C38.1907 23.7953 38.6172 23.9937 39.0532 24.1016C39.4563 24.2 39.5578 24.4953 39.575 24.8828C39.6391 25.9535 39.3139 27.0112 38.6594 27.8609L38.6563 27.8672ZM42.3125 14.5859C41.4094 17.3203 40.4954 20.0547 39.6141 22.7922C39.4485 23.3062 39.2235 23.4 38.7375 23.0906L41.0547 12.7891L41.411 11.2078L43.286 11.6469C43.1579 12.0328 43.0344 12.4125 42.9094 12.7891L42.3125 14.5859Z" fill="black"/>
</svg>
