<svg width="60" height="60" viewBox="0 0 60 60" fill="none" xmlns="http://www.w3.org/2000/svg">
<path d="M33.8437 55.5C33.9225 55.3219 34.1212 55.1981 34.2656 55.0481C36.4687 52.7381 38.6906 50.4487 40.8637 48.1106C41.5437 47.4826 42.0692 46.7057 42.399 45.8408C42.7289 44.9759 42.8541 44.0464 42.765 43.125C42.6967 42.7304 42.6072 42.3399 42.4968 41.955C41.9043 42.5175 41.3531 43.0294 40.7981 43.545C39.9356 44.3475 39.0768 45.1537 38.2068 45.9469C37.6938 46.4699 37.0342 46.8251 36.3151 46.9653C35.596 47.1056 34.8513 47.0244 34.1793 46.7325C33.4991 46.4826 32.9072 46.0384 32.4772 45.4551C32.0472 44.8717 31.798 44.175 31.7606 43.4512C31.7404 43.3581 31.7135 43.2666 31.68 43.1775C31.0181 43.74 30.3843 44.2575 29.7562 44.79L16.7006 55.8525C16.6106 55.9294 16.5131 56.025 16.4287 56.1H33.8343L33.8081 56.0831C33.7143 56.0175 33.7631 55.6725 33.8437 55.5Z" fill="#6079FF"/>
<path d="M15.6314 55.5C15.7862 55.2984 15.9731 55.1236 16.1845 54.9825L34.252 39.6544C35.4845 38.6081 36.7114 37.5562 37.9327 36.4987C38.0835 36.3935 38.2018 36.248 38.2739 36.0788C38.566 34.8058 38.6074 33.4881 38.3958 32.1994C38.2083 32.3306 38.107 32.3869 38.0208 32.4787C36.5414 33.8025 35.0695 35.1375 33.5827 36.4537C33.0901 36.9495 32.453 37.2763 31.763 37.3871C31.0731 37.498 30.3657 37.3871 29.7427 37.0706C29.107 36.7706 28.575 36.2881 28.2144 35.6848C27.8538 35.0814 27.6809 34.3844 27.7177 33.6825C27.7177 33.5231 27.7177 33.3656 27.7177 33.075C27.4458 33.2737 27.247 33.4069 27.0614 33.5569C19.8302 39.3469 12.6002 45.1325 5.37141 50.9138C5.04516 51.1744 4.65516 51.7556 4.22766 51.1913C3.80016 50.6269 4.45078 50.3944 4.77891 50.1319C12.4852 43.9481 20.1952 37.77 27.9089 31.5975C29.1652 30.5906 29.2477 30.1687 28.4302 28.5694L27.9427 29.0269C26.6058 30.27 25.2539 31.4962 23.9377 32.76C23.3977 33.2808 22.7215 33.6383 21.9871 33.7911C21.2527 33.944 20.49 33.886 19.7871 33.6239C19.0842 33.3617 18.4698 32.9061 18.0148 32.3097C17.5598 31.7133 17.2828 31.0003 17.2158 30.2531C16.9664 30.4406 16.7508 30.5775 16.5464 30.7369L5.10891 39.6019C4.91164 39.7954 4.68668 39.9584 4.44141 40.0856C4.25629 40.1416 4.05751 40.1316 3.87891 40.0575V56.1094H15.6089C15.5653 56.013 15.5446 55.9078 15.5485 55.802C15.5524 55.6963 15.5808 55.5929 15.6314 55.5Z" fill="#6079FF"/>
<path d="M47.3197 4.54313C47.0009 5.58751 46.6916 6.63376 46.4122 7.68938C46.1541 8.43537 46.1842 9.25086 46.4963 9.97585C46.8085 10.7008 47.3804 11.283 48.0997 11.6081C50.2998 12.7646 52.7791 13.2841 55.2584 13.1081V4.72126C55.2309 4.53738 55.2411 4.34981 55.2884 4.17001C55.3409 4.0683 55.4072 3.97429 55.4853 3.89063H47.3122C47.4378 4.03688 47.3947 4.29376 47.3197 4.54313Z" fill="#2849F7"/>
<path d="M30.9033 22.56C30.8644 23.4961 30.537 24.3973 29.9658 25.14C27.924 27.7758 25.5791 30.1622 22.9796 32.25C22.5603 32.6381 22.029 32.8834 21.4618 32.9507C20.8945 33.0181 20.3205 32.9041 19.8221 32.625C19.3259 32.4131 18.9076 32.0527 18.6246 31.5934C18.3416 31.1341 18.2077 30.5984 18.2414 30.06C18.3015 29.3987 18.576 28.7752 19.0233 28.2844C21.9302 25.5126 25.0797 23.0069 28.4339 20.7975C28.6536 20.6252 28.9219 20.5264 29.2008 20.515C29.4798 20.5035 29.7552 20.5801 29.9883 20.7338C30.2946 20.924 30.5423 21.1953 30.7038 21.5176C30.8653 21.84 30.9343 22.2008 30.9033 22.56Z" fill="#2849F7"/>
<path d="M28.6573 33.9244C28.6138 33.5099 28.667 33.091 28.8128 32.7006C28.9585 32.3102 29.1928 31.9589 29.4973 31.6744C32.3435 29.0492 35.3972 26.6583 38.6286 24.525C38.7261 24.4631 38.8161 24.4013 38.9229 24.3375C39.2052 24.1337 39.5472 24.0296 39.8951 24.0415C40.243 24.0534 40.5771 24.1806 40.8448 24.4031C41.1038 24.6225 41.2871 24.918 41.3686 25.2476C41.45 25.5771 41.4255 25.9239 41.2986 26.2388C40.8898 27.6004 40.1353 28.8329 39.1086 29.8163C37.0367 31.8788 34.8861 33.8738 32.7336 35.8538C32.4076 36.189 31.9794 36.4063 31.5164 36.4714C31.0534 36.5366 30.5819 36.446 30.1761 36.2138C29.7496 35.9922 29.3865 35.6658 29.1208 35.2653C28.8552 34.8649 28.6957 34.4034 28.6573 33.9244Z" fill="#2849F7"/>
<path d="M42.1878 35.1638C41.6628 35.7263 41.1228 36.2625 40.6184 36.8381C40.4667 37.0606 40.3409 37.2997 40.2434 37.5506C40.5209 37.6331 40.8453 37.8506 41.0703 37.7738C42.2159 37.3894 43.3334 36.9281 44.5915 36.4425C44.3178 37.0725 44.1115 37.6538 43.8209 38.1863C42.6236 40.1984 41.1242 42.0146 39.3753 43.5713C38.7103 44.2125 38.0196 44.8256 37.3034 45.4106C36.9241 45.7254 36.468 45.9338 35.9817 46.0144C35.4955 46.0951 34.9965 46.0451 34.5359 45.8696C34.0753 45.6942 33.6696 45.3995 33.3602 45.0157C33.0509 44.632 32.849 44.173 32.7753 43.6856C32.7452 43.4147 32.7692 43.1404 32.8458 42.8788C32.9224 42.6171 33.0501 42.3732 33.2215 42.1613C35.7731 39.3905 38.6891 36.9791 41.8896 34.9931C41.9286 34.978 41.9698 34.9698 42.0115 34.9688L42.1878 35.1638Z" fill="#2849F7"/>
<path d="M46.4883 27.6956L49.6964 13.4456L51.9464 13.9725L50.7858 17.4994C49.702 20.7806 48.6052 24.0619 47.5477 27.3469C47.3414 27.9544 47.0714 28.0669 46.4883 27.6956Z" fill="#6079FF"/>
<path d="M42.8662 36.0769C43.2056 34.7812 43.5431 33.5831 43.8281 32.3719C44.1058 31.1972 44.6342 30.0965 45.3768 29.145C45.8325 28.5469 46.3443 28.785 46.8675 28.9144C47.3512 29.0325 47.4731 29.3869 47.4937 29.8519C47.57 31.1378 47.1784 32.4078 46.3912 33.4275C45.4541 34.5893 44.2427 35.4997 42.8662 36.0769Z" fill="#2849F7"/>
<path d="M56.2365 5.42624C56.2645 5.00864 56.2538 4.58936 56.2047 4.17374C56.166 4.05764 56.0894 3.95792 55.9872 3.89061C55.9039 3.82293 55.8065 3.77487 55.7022 3.74999C55.6422 3.73874 55.5578 3.80061 55.4772 3.88873C55.399 3.9724 55.3328 4.0664 55.2803 4.16811C55.2329 4.34792 55.2227 4.53548 55.2503 4.71936V13.1044C52.7709 13.2803 50.2917 12.7609 48.0915 11.6044C47.3722 11.2792 46.8004 10.6971 46.4882 9.97208C46.176 9.24708 46.146 8.43159 46.404 7.68561C46.6834 6.62998 46.9928 5.58373 47.3115 4.53936C47.3865 4.28999 47.4297 4.03311 47.3115 3.88686C47.2458 3.81566 47.1551 3.77266 47.0584 3.76686C46.9345 3.7682 46.8146 3.81038 46.7172 3.88686C46.5769 3.97073 46.4652 4.09487 46.3965 4.24311C46.0215 5.36811 45.6915 6.50436 45.4047 7.65186C45.2963 8.10405 45.2672 8.57158 45.3184 9.03373C45.391 9.86994 45.7019 10.6678 46.2144 11.3325C46.7269 11.9972 47.4194 12.5009 48.2097 12.7837C48.564 12.9319 48.7722 13.0781 48.6728 13.545C48.5359 14.1375 48.4028 14.73 48.2678 15.3244C47.349 19.3519 46.4353 23.3812 45.5265 27.4125C45.5009 27.5922 45.4219 27.7601 45.2997 27.8944C44.7007 28.3704 44.1974 28.9558 43.8165 29.6194C43.3311 30.4951 42.9953 31.4456 42.8228 32.4319C42.7897 32.7465 42.676 33.0472 42.4927 33.305C42.3094 33.5629 42.0628 33.7691 41.7765 33.9037C40.9947 34.2994 40.2765 34.8112 39.4084 35.3437C39.4663 34.2998 39.455 33.2531 39.3747 32.2106C39.3086 31.8899 39.3226 31.5579 39.4155 31.2439C39.5084 30.93 39.6773 30.6437 39.9072 30.4106C41.0507 29.2777 41.8659 27.8561 42.2659 26.2969C42.3854 25.9354 42.4182 25.5509 42.3615 25.1745C42.3049 24.7981 42.1605 24.4402 41.94 24.1299C41.7195 23.8196 41.4291 23.5655 41.0923 23.3882C40.7554 23.211 40.3815 23.1154 40.0009 23.1094C39.3846 23.1025 38.7796 23.2744 38.259 23.6044C36.4647 24.8156 34.719 26.1019 32.9865 27.4031C31.9609 28.1756 30.9953 29.0306 30.0015 29.8406C29.9587 29.7946 29.9216 29.7436 29.8909 29.6887C29.8719 29.5507 29.8347 29.4158 29.7803 29.2875C28.9497 28.005 29.5253 27.0731 30.4272 26.115C31.3667 25.1301 31.8859 23.818 31.8747 22.4569C31.9038 21.7633 31.6866 21.0819 31.2615 20.5331C31.0351 20.2545 30.756 20.0233 30.4403 19.8525C29.9918 19.607 29.4789 19.5045 28.9705 19.5588C28.4621 19.6131 27.9825 19.8216 27.5959 20.1562L27.0728 20.5312C25.8784 21.3862 24.669 22.2187 23.5197 23.1337C21.8415 24.4687 20.2028 25.86 18.5959 27.285C17.8459 27.9469 17.2984 28.8506 16.5203 29.4656C12.4628 32.67 8.36216 35.8162 4.27653 38.9831C4.13605 39.0669 4.00687 39.1684 3.89216 39.285C3.88035 39.302 3.8703 39.3203 3.86216 39.3394C3.77591 39.54 3.70278 39.8719 3.80403 39.9937C3.82885 40.0202 3.85885 40.0412 3.89216 40.0556C4.07077 40.1297 4.26955 40.1397 4.45466 40.0837C4.69993 39.9565 4.92489 39.7935 5.12216 39.6L16.5597 30.735C16.764 30.5756 16.9797 30.4312 17.229 30.2512C17.2961 30.9984 17.5731 31.7114 18.0281 32.3078C18.4831 32.9042 19.0975 33.3598 19.8003 33.622C20.5032 33.8841 21.2659 33.9421 22.0003 33.7892C22.7348 33.6364 23.411 33.2789 23.9509 32.7581C25.2634 31.4944 26.619 30.2681 27.9559 29.025L28.4434 28.5675C29.2609 30.1669 29.1784 30.5887 27.9222 31.5956C20.2022 37.7731 12.4878 43.9519 4.77903 50.1319C4.45091 50.3944 3.80216 50.6325 4.22778 51.1912C4.65341 51.75 5.04528 51.1744 5.37153 50.9137C12.604 45.1375 19.8315 39.3537 27.054 33.5625C27.2415 33.4125 27.4384 33.2794 27.7103 33.0806C27.7103 33.3712 27.7103 33.5287 27.7103 33.6881C27.6735 34.39 27.8465 35.087 28.2071 35.6904C28.5677 36.2938 29.0996 36.7762 29.7353 37.0762C30.3583 37.3928 31.0657 37.5036 31.7557 37.3927C32.4457 37.2819 33.0827 36.9551 33.5753 36.4594C35.0622 35.1469 36.534 33.8081 38.0134 32.4844C38.1072 32.4 38.2159 32.3362 38.3884 32.205C38.6 33.4938 38.5587 34.8114 38.2665 36.0844C38.1944 36.2536 38.0762 36.3991 37.9253 36.5044C36.7028 37.5606 35.4759 38.6125 34.2447 39.66L16.1847 54.99C15.9732 55.1311 15.7864 55.3059 15.6315 55.5075C15.5821 55.5994 15.5544 55.7015 15.5505 55.8058C15.5466 55.9101 15.5666 56.014 15.609 56.1094C15.6938 56.1728 15.7917 56.2164 15.8956 56.2369C15.9994 56.2573 16.1066 56.2541 16.209 56.2275C16.2899 56.204 16.3643 56.1623 16.4265 56.1056C16.5203 56.0306 16.614 55.935 16.6984 55.8581L29.754 44.7956C30.3822 44.2631 31.0159 43.7381 31.6778 43.1831C31.7113 43.2723 31.7383 43.3638 31.7584 43.4569C31.7959 44.1806 32.0451 44.8774 32.4751 45.4607C32.9051 46.044 33.4969 46.4882 34.1772 46.7381C34.8491 47.03 35.5939 47.1112 36.3129 46.9709C37.032 46.8307 37.6917 46.4755 38.2047 45.9525C39.0747 45.1594 39.9334 44.3531 40.7959 43.5506C41.3584 43.035 41.9022 42.5175 42.4947 41.9606C42.605 42.3455 42.6946 42.7361 42.7628 43.1306C42.849 44.0489 42.7223 44.9748 42.3925 45.8362C42.0628 46.6976 41.5389 47.4714 40.8615 48.0975C38.6884 50.4375 36.4665 52.7269 34.2634 55.035C34.119 55.185 33.9203 55.3087 33.8415 55.4869C33.7628 55.665 33.7122 56.0137 33.8059 56.0887L33.8322 56.1056C34.0288 56.2012 34.2498 56.2346 34.4659 56.2012C34.5264 56.1888 34.5804 56.1548 34.6178 56.1056C34.6703 56.0512 34.7209 55.9837 34.7715 55.9331C36.5565 54.0881 38.3509 52.2525 40.1228 50.3944C40.838 49.6697 41.5104 48.9041 42.1365 48.1012C42.953 47.1973 43.4944 46.0791 43.697 44.878C43.8996 43.6769 43.7551 42.443 43.2803 41.3212C43.2292 41.0711 43.2791 40.811 43.419 40.5975C43.5409 40.3875 43.6759 40.1831 43.8147 39.9806C44.2586 39.4042 44.6284 38.7742 44.9153 38.1056C45.4697 36.4646 46.3207 34.9393 47.4259 33.6056C47.934 32.9614 48.2836 32.2068 48.4464 31.4027C48.6093 30.5985 48.5808 29.7674 48.3634 28.9762C48.2866 28.6754 48.2866 28.3602 48.3634 28.0594C49.3122 25.1212 50.289 22.1925 51.2565 19.2619C51.6903 17.9494 52.1215 16.6406 52.5503 15.3356L52.9497 14.1225C53.8009 14.1225 54.6034 14.1056 55.4022 14.1225C56.0659 14.1412 56.2684 13.83 56.2609 13.185C56.2215 10.5975 56.2365 8.01186 56.2365 5.42624ZM22.9797 32.25C22.5604 32.638 22.0291 32.8833 21.4619 32.9507C20.8946 33.0181 20.3206 32.904 19.8222 32.625C19.326 32.413 18.9077 32.0527 18.6247 31.5934C18.3417 31.1341 18.2078 30.5984 18.2415 30.06C18.3016 29.3987 18.5761 28.7752 19.0234 28.2844C21.9303 25.5126 25.0798 23.0069 28.434 20.7975C28.6171 20.6681 28.8254 20.5786 29.0453 20.535C29.1928 20.5078 29.344 20.5078 29.4915 20.535C29.6682 20.5694 29.8368 20.6368 29.9884 20.7337C30.295 20.9241 30.5429 21.1957 30.7044 21.5184C30.8659 21.8411 30.9348 22.2023 30.9034 22.5619C30.8645 23.498 30.5371 24.3992 29.9659 25.1419C27.9239 27.777 25.5791 30.1628 22.9797 32.25ZM32.7297 35.8669C32.4037 36.2021 31.9755 36.4193 31.5125 36.4845C31.0495 36.5497 30.578 36.459 30.1722 36.2269C29.7449 36.0048 29.3813 35.6775 29.1156 35.276C28.8499 34.8745 28.6908 34.4119 28.6534 33.9319C28.6099 33.5174 28.6631 33.0985 28.8088 32.7081C28.9546 32.3177 29.1889 31.9664 29.4934 31.6819C32.3396 29.0567 35.3933 26.6658 38.6247 24.5325C38.7222 24.4706 38.8122 24.4087 38.919 24.345C39.2013 24.1412 39.5433 24.0371 39.8912 24.049C40.2391 24.0608 40.5732 24.1881 40.8409 24.4106C41.0999 24.63 41.2832 24.9255 41.3647 25.255C41.4461 25.5846 41.4216 25.9314 41.2947 26.2462C40.8858 27.6078 40.1314 28.8404 39.1047 29.8237C37.0365 31.89 34.8859 33.8794 32.7334 35.8594L32.7297 35.8669ZM43.8128 38.1937C42.6171 40.2027 41.1204 42.0163 39.3747 43.5712C38.7097 44.2125 38.019 44.8256 37.3028 45.4106C36.9235 45.7254 36.4674 45.9337 35.9811 46.0144C35.4949 46.095 34.9959 46.0451 34.5353 45.8696C34.0747 45.6941 33.669 45.3995 33.3596 45.0157C33.0503 44.632 32.8484 44.173 32.7747 43.6856C32.7446 43.4146 32.7686 43.1404 32.8452 42.8787C32.9218 42.6171 33.0495 42.3732 33.2209 42.1612C35.7724 39.3905 38.6885 36.979 41.889 34.9931C41.9279 34.978 41.9692 34.9698 42.0109 34.9687L42.1984 35.1562C41.6734 35.7187 41.1334 36.255 40.629 36.8306C40.4774 37.0531 40.3516 37.2921 40.254 37.5431C40.5315 37.6256 40.8559 37.8431 41.0809 37.7662C41.9865 37.4625 42.8772 37.11 43.8315 36.735L44.6022 36.435C44.3134 37.0725 44.1072 37.6537 43.8165 38.1862L43.8128 38.1937ZM46.3872 33.4406C45.6878 34.331 44.8111 35.0665 43.8128 35.6006C43.504 35.7731 43.1872 35.9344 42.8622 36.0844C43.1959 34.8075 43.5297 33.6244 43.8128 32.4281L43.824 32.3794C44.1018 31.2047 44.6301 30.104 45.3728 29.1525C45.8284 28.5544 46.3403 28.7925 46.8634 28.9219C47.3472 29.04 47.469 29.3944 47.4897 29.8594C47.5665 31.1442 47.1763 32.4134 46.3909 33.4331L46.3872 33.4406ZM50.7747 17.5031C49.6909 20.7844 48.594 24.0656 47.5365 27.3506C47.3378 27.9675 47.0678 28.08 46.4847 27.7087L49.2653 15.3469L49.6928 13.4494L51.9428 13.9762C51.789 14.4394 51.6409 14.895 51.4909 15.3469L50.7747 17.5031Z" fill="black"/>
</svg>
