<svg width="40" height="40" viewBox="0 0 40 40" fill="none" xmlns="http://www.w3.org/2000/svg">
<path d="M5 18.75H1.25C0.56 18.75 0 19.31 0 20C0 20.69 0.56 21.25 1.25 21.25H5C5.69 21.25 6.25 20.69 6.25 20C6.25 19.31 5.69 18.75 5 18.75ZM20 6.25C20.69 6.25 21.25 5.69 21.25 5V1.25C21.25 0.56 20.69 0 20 0C19.31 0 18.75 0.56 18.75 1.25V5C18.75 5.69 19.31 6.25 20 6.25ZM32.0263 9.72497L34.6526 7.09869C35.1363 6.61497 35.1363 5.83118 34.6526 5.34745C34.1688 4.86373 33.385 4.86373 32.9012 5.34745L30.275 7.97373C29.7912 8.45745 29.7912 9.24124 30.275 9.72497C30.7588 10.2088 31.5426 10.2088 32.0263 9.72497ZM9.26248 28.9875L6.63621 31.6138C6.15248 32.0975 6.15248 32.8813 6.63621 33.365C7.11994 33.8488 7.90373 33.8488 8.38745 33.365L11.0137 30.7388C11.4975 30.255 11.4975 29.4712 11.0137 28.9875C10.53 28.5038 9.74627 28.5037 9.26248 28.9875ZM8.51 10.2775C8.99876 10.7663 9.79 10.7663 10.2775 10.2775C10.765 9.78876 10.765 8.99752 10.2775 8.51007L7.62628 5.85752C7.13752 5.36876 6.34627 5.36876 5.85876 5.85752C5.37 6.34627 5.37 7.13752 5.85876 7.62503L8.51 10.2775ZM20 33.75C19.31 33.75 18.75 34.31 18.75 35V38.75C18.75 39.44 19.31 40 20 40C20.69 40 21.25 39.44 21.25 38.75V35C21.25 34.31 20.69 33.75 20 33.75ZM31.49 29.7225C31.0012 29.2337 30.21 29.2337 29.7225 29.7225C29.2337 30.2113 29.2337 31.0025 29.7225 31.49L32.3737 34.1412C32.8625 34.63 33.6537 34.63 34.1412 34.1412C34.6288 33.6524 34.63 32.8612 34.1412 32.3737L31.49 29.7225ZM38.75 18.75H35C34.31 18.75 33.75 19.31 33.75 20C33.75 20.69 34.31 21.25 35 21.25H38.75C39.44 21.25 40 20.69 40 20C40 19.31 39.44 18.75 38.75 18.75ZM20 8.74248C13.7825 8.74248 8.74248 13.7825 8.74248 20C8.74248 26.2175 13.7825 31.2575 20 31.2575C26.2175 31.2575 31.2575 26.2175 31.2575 20C31.2575 13.7825 26.2175 8.74248 20 8.74248ZM20 28.7475C15.1688 28.7475 11.2525 24.8312 11.2525 20C11.2525 15.1688 15.1688 11.2525 20 11.2525C24.8312 11.2525 28.7475 15.1688 28.7475 20C28.7475 24.8312 24.8312 28.7475 20 28.7475Z" fill="white"/>
</svg>
