<svg width="60" height="60" viewBox="0 0 60 60" fill="none" xmlns="http://www.w3.org/2000/svg">
<path d="M0 0V3.33333V60H60V0H0ZM6.66667 6.66667H53.3333V53.3333H6.66667V6.66667ZM13.3333 23.3333V28.1706H20.2474V50H25.9375V28.1706H32.9948V23.3333H13.3333ZM41.849 23.3984C37.9015 23.6864 33.9583 25.339 33.9583 30.8073C33.9583 38.8506 44.7917 38.8473 44.7917 42.474C44.7917 42.8173 44.9431 45.319 41.1198 45.319C37.2965 45.319 34.1016 42.9167 34.1016 42.9167V48.7565C34.1016 48.7565 50.7747 54.1457 50.7747 41.9857C50.7747 34.089 39.8372 34.4832 39.8372 30.5599C39.8372 29.0399 40.9228 27.6172 43.9128 27.6172C46.9028 27.6172 49.5508 29.3815 49.5508 29.3815L49.7461 24.1862C49.7461 24.1862 45.7965 23.1105 41.849 23.3984Z" fill="#2849F7"/>
</svg>
