<svg width="50" height="50" viewBox="0 0 50 50" fill="none" xmlns="http://www.w3.org/2000/svg">
<path d="M0 0V2.77778V50H50V0H0ZM5.55556 5.55556H44.4444V44.4444H5.55556V5.55556ZM11.1111 19.4444V23.4755H16.8728V41.6667H21.6146V23.4755H27.4957V19.4444H11.1111ZM34.8741 19.4987C31.5845 19.7386 28.2986 21.1158 28.2986 25.6727C28.2986 32.3755 37.3264 32.3727 37.3264 35.395C37.3264 35.6811 37.4526 37.7658 34.2665 37.7658C31.0804 37.7658 28.418 35.7639 28.418 35.7639V40.6304C28.418 40.6304 42.3123 45.1214 42.3123 34.9881C42.3123 28.4075 33.1977 28.736 33.1977 25.4666C33.1977 24.1999 34.1023 23.0143 36.594 23.0143C39.0856 23.0143 41.2923 24.4846 41.2923 24.4846L41.4551 20.1552C41.4551 20.1552 38.1637 19.2588 34.8741 19.4987Z" fill="url(#paint0_linear)"/>
<defs>
<linearGradient id="paint0_linear" x1="25" y1="0" x2="25" y2="50" gradientUnits="userSpaceOnUse">
<stop stop-color="#835AFD"/>
<stop offset="1" stop-color="#DA4FFE"/>
</linearGradient>
</defs>
</svg>
