<svg width="25" height="25" viewBox="0 0 25 25" fill="none" xmlns="http://www.w3.org/2000/svg">
<path d="M25 12.1781C25 18.9039 19.5058 24.3561 12.7272 24.3561C10.5753 24.3561 8.55361 23.8061 6.79472 22.8408L0 25L2.21528 18.4661C1.09778 16.6311 0.454167 14.4789 0.454167 12.1781C0.454167 5.45222 5.94889 0 12.7272 0C19.5064 0 25 5.45222 25 12.1781ZM12.7272 1.93944C7.03722 1.93944 2.40889 6.5325 2.40889 12.1781C2.40889 14.4183 3.13917 16.4931 4.37444 18.1808L3.08528 21.9833L7.05056 20.7231C8.67972 21.7928 10.6314 22.4167 12.7275 22.4167C18.4167 22.4167 23.0458 17.8242 23.0458 12.1786C23.0458 6.53306 18.4169 1.93944 12.7272 1.93944ZM18.9247 14.9828C18.8489 14.8586 18.6486 14.7836 18.3481 14.6344C18.0469 14.4853 16.5675 13.7628 16.2925 13.6636C16.0167 13.5642 15.8156 13.5142 15.6153 13.8128C15.415 14.1117 14.8383 14.7836 14.6625 14.9828C14.4869 15.1825 14.3117 15.2075 14.0106 15.0581C13.71 14.9089 12.7408 14.5933 11.5917 13.5767C10.6975 12.7856 10.0936 11.8089 9.91806 11.5097C9.74278 11.2111 9.89972 11.0497 10.05 10.9011C10.1856 10.7672 10.3511 10.5525 10.5014 10.3783C10.6522 10.2039 10.7022 10.0797 10.8019 9.88028C10.9028 9.68111 10.8525 9.50694 10.7769 9.35722C10.7019 9.20806 10.0997 7.73917 9.84917 7.14139C9.59861 6.54417 9.34833 6.64361 9.1725 6.64361C8.99722 6.64361 8.79639 6.61861 8.59583 6.61861C8.39528 6.61861 8.06917 6.69333 7.79333 6.99194C7.51778 7.29083 6.74083 8.01306 6.74083 9.48167C6.74083 10.9506 7.81833 12.3697 7.96917 12.5686C8.11944 12.7675 10.0497 15.8797 13.1081 17.075C16.1667 18.2697 16.1667 17.8711 16.7183 17.8211C17.2694 17.7714 18.4978 17.0992 18.7494 16.4025C18.9994 15.7047 18.9994 15.1072 18.9247 14.9828Z" fill="#F4F4F4"/>
</svg>
