<svg width="100" height="100" viewBox="0 0 100 100" fill="none" xmlns="http://www.w3.org/2000/svg">
<circle cx="50" cy="50" r="50" fill="#2849F7"/>
<path d="M80 49.2273C80 65.3693 66.814 78.4547 50.5453 78.4547C45.3807 78.4547 40.5287 77.1347 36.3073 74.818L20 80L25.3167 64.3187C22.6347 59.9147 21.09 54.7493 21.09 49.2273C21.09 33.0853 34.2773 20 50.5453 20C66.8153 20 80 33.0853 80 49.2273ZM50.5453 24.6547C36.8893 24.6547 25.7813 35.678 25.7813 49.2273C25.7813 54.604 27.534 59.5833 30.4987 63.634L27.4047 72.76L36.9213 69.7353C40.8313 72.3027 45.5153 73.8 50.546 73.8C64.2 73.8 75.31 62.778 75.31 49.2287C75.31 35.6793 64.2007 24.6547 50.5453 24.6547ZM65.4193 55.9587C65.2373 55.6607 64.7567 55.4807 64.0353 55.1227C63.3127 54.7647 59.762 53.0307 59.102 52.7927C58.44 52.554 57.9573 52.434 57.4767 53.1507C56.996 53.868 55.612 55.4807 55.19 55.9587C54.7687 56.438 54.348 56.498 53.6253 56.1393C52.904 55.7813 50.578 55.024 47.82 52.584C45.674 50.6853 44.2247 48.3413 43.8033 47.6233C43.3827 46.9067 43.7593 46.5193 44.12 46.1627C44.4453 45.8413 44.8427 45.326 45.2033 44.908C45.5653 44.4893 45.6853 44.1913 45.9247 43.7127C46.1667 43.2347 46.046 42.8167 45.8647 42.4573C45.6847 42.0993 44.2393 38.574 43.638 37.1393C43.0367 35.706 42.436 35.9447 42.014 35.9447C41.5933 35.9447 41.1113 35.8847 40.63 35.8847C40.1487 35.8847 39.366 36.064 38.704 36.7807C38.0427 37.498 36.178 39.2313 36.178 42.756C36.178 46.2813 38.764 49.6873 39.126 50.1647C39.4867 50.642 44.1193 58.1113 51.4593 60.98C58.8 63.8473 58.8 62.8907 60.124 62.7707C61.4467 62.6513 64.3947 61.038 64.9987 59.366C65.5987 57.6913 65.5987 56.2573 65.4193 55.9587Z" fill="#F4F4F4"/>
</svg>
